<?xml version="1.0" standalone="no"?>
<!DOCTYPE svg PUBLIC "-//W3C//DTD SVG 20010904//EN"
 "http://www.w3.org/TR/2001/REC-SVG-20010904/DTD/svg10.dtd">
<svg version="1.0" xmlns="http://www.w3.org/2000/svg"
 width="2000.000000pt" height="2000.000000pt" viewBox="0 0 2000.000000 2000.000000"
 preserveAspectRatio="xMidYMid meet">

<g transform="translate(0.000000,2000.000000) scale(0.100000,-0.100000)"
fill="#000000" stroke="none">
<path d="M9630 15595 c-74 -7 -148 -14 -163 -14 -16 -1 -26 -5 -23 -9 2 -4
-11 -6 -30 -4 -22 3 -34 0 -34 -8 0 -7 -8 -9 -19 -5 -32 10 -488 -85 -474 -98
4 -5 0 -5 -10 -1 -10 3 -17 1 -17 -6 0 -6 -4 -9 -10 -5 -15 9 -61 -6 -53 -18
4 -6 0 -8 -10 -4 -18 7 -24 5 -194 -54 -83 -29 -119 -46 -110 -52 8 -6 6 -7
-7 -3 -18 6 -119 -27 -141 -46 -5 -4 -17 -8 -28 -8 -11 0 -15 -4 -11 -12 4 -6
3 -8 -3 -5 -6 4 -23 1 -39 -7 -148 -68 -192 -92 -187 -100 3 -5 1 -6 -5 -2
-13 8 -103 -38 -237 -119 -150 -91 -176 -108 -164 -115 7 -5 5 -9 -6 -13 -9
-4 -13 -3 -10 3 3 6 3 10 0 10 -7 0 -96 -59 -105 -69 -3 -3 -23 -18 -45 -34
-62 -42 -93 -70 -72 -63 11 4 16 2 12 -5 -4 -6 -14 -8 -22 -4 -18 6 -59 -25
-44 -35 6 -3 0 -12 -12 -19 -20 -13 -21 -13 -8 2 23 28 2 19 -44 -20 -24 -20
-41 -41 -38 -46 4 -6 1 -7 -6 -3 -14 9 -53 -22 -45 -36 3 -4 0 -7 -8 -6 -7 2
-12 -3 -10 -10 1 -8 -2 -11 -7 -8 -19 12 -309 -268 -316 -304 -2 -13 -7 -25
-11 -29 -4 -3 -4 2 -1 12 4 9 2 17 -2 17 -9 0 -25 -30 -23 -43 1 -4 -4 -6 -10
-5 -7 2 -11 -4 -10 -12 2 -8 0 -12 -4 -8 -12 12 -33 -12 -27 -29 4 -10 2 -14
-4 -10 -13 8 -56 -37 -46 -48 5 -4 3 -5 -3 -2 -15 9 -38 -19 -28 -34 4 -7 3
-9 -3 -6 -6 4 -28 -14 -49 -39 -42 -49 -55 -72 -34 -59 9 5 11 4 6 -4 -4 -6
-11 -9 -16 -6 -5 3 -14 -5 -21 -17 -7 -13 -19 -28 -27 -34 -9 -7 -12 -16 -7
-24 5 -8 4 -11 -2 -7 -6 4 -19 -5 -28 -20 -13 -19 -14 -28 -6 -31 6 -2 8 -8 5
-14 -4 -7 -9 -6 -14 2 -6 9 -13 4 -26 -16 -10 -16 -21 -31 -24 -34 -23 -19
-130 -202 -124 -211 4 -7 3 -9 -4 -5 -13 8 -34 -27 -24 -40 4 -5 3 -6 -2 -2
-11 9 -26 -15 -100 -158 -31 -60 -54 -114 -51 -122 2 -7 1 -11 -4 -8 -5 3 -19
-16 -31 -42 -13 -26 -30 -59 -37 -75 -8 -15 -11 -32 -7 -39 4 -6 3 -8 -4 -4
-13 8 -26 -29 -16 -45 5 -8 3 -9 -6 -4 -10 6 -12 3 -8 -13 4 -12 3 -20 -2 -17
-8 5 -25 -36 -96 -230 -25 -66 -42 -125 -39 -132 2 -7 1 -13 -3 -13 -11 0 -34
-89 -26 -102 4 -6 2 -8 -3 -5 -9 6 -55 -151 -68 -234 -2 -13 -9 -46 -15 -74
-6 -27 -13 -62 -15 -77 -2 -15 -6 -31 -9 -36 -3 -5 -8 -33 -11 -63 -3 -30 -10
-81 -16 -114 -5 -33 -8 -69 -5 -79 3 -11 0 -26 -6 -33 -6 -7 -8 -33 -6 -57 3
-25 1 -49 -4 -54 -12 -12 -24 -542 -12 -542 5 0 8 -33 6 -76 -3 -42 0 -74 4
-71 5 3 8 -20 6 -51 -2 -42 0 -53 8 -42 7 11 8 7 4 -17 -7 -35 24 -285 36
-293 4 -3 7 -14 7 -25 0 -11 0 -33 1 -50 2 -24 4 -27 13 -15 8 12 9 9 5 -12
-8 -37 62 -330 77 -321 6 3 7 1 3 -6 -7 -11 20 -116 46 -179 6 -15 12 -32 13
-38 5 -21 48 -139 65 -179 9 -22 23 -57 30 -78 10 -33 14 -36 28 -25 14 11 14
11 5 -6 -13 -23 -1 -57 31 -95 12 -13 16 -21 9 -17 -13 7 34 -102 75 -174 33
-58 32 -57 42 -40 6 8 10 10 10 5 0 -6 -4 -15 -10 -21 -6 -6 -2 -22 12 -44 12
-19 23 -37 23 -40 6 -22 30 -58 36 -54 5 3 9 -2 9 -11 0 -9 5 -26 11 -37 9
-17 13 -18 21 -7 8 11 8 9 4 -5 -4 -10 -1 -25 5 -32 6 -8 22 -33 35 -57 12
-23 28 -41 34 -39 6 1 9 -1 6 -6 -3 -5 2 -19 11 -32 16 -22 17 -22 31 -4 13
18 14 18 8 -3 -4 -12 -2 -24 4 -28 6 -3 8 -10 5 -15 -3 -5 17 -42 45 -82 71
-104 77 -111 89 -103 6 3 9 0 6 -7 -3 -8 7 -28 21 -46 21 -25 30 -29 36 -20 7
10 8 9 5 -2 -7 -24 88 -144 106 -133 6 3 7 1 3 -5 -3 -6 6 -23 21 -39 16 -15
49 -52 75 -81 26 -29 52 -51 57 -47 5 3 13 0 17 -6 4 -8 3 -9 -4 -5 -7 4 -12
4 -12 0 0 -13 72 -74 80 -69 5 3 12 0 16 -6 5 -8 3 -9 -6 -4 -7 4 -11 4 -9 -2
6 -16 161 -148 170 -145 5 1 8 -2 7 -7 -4 -13 165 -152 179 -146 8 2 10 -2 6
-13 -6 -15 -5 -15 10 -3 15 12 17 12 12 -1 -3 -8 2 -21 12 -29 17 -13 17 -13
4 6 -8 11 7 0 35 -25 64 -59 112 -92 124 -85 5 3 12 0 16 -6 5 -8 3 -9 -7 -4
-12 8 -12 6 0 -8 11 -13 17 -15 28 -6 11 10 12 8 6 -7 -6 -17 -5 -17 10 -5 15
12 17 12 12 -2 -5 -11 24 -34 110 -87 101 -63 118 -70 133 -58 15 11 15 11 5
-3 -11 -13 -5 -19 38 -42 27 -15 55 -25 61 -21 6 4 8 3 5 -2 -10 -17 375 -200
394 -188 5 3 9 2 9 -3 0 -4 21 -16 48 -26 26 -11 68 -27 94 -38 25 -10 54 -16
64 -12 13 5 15 3 9 -7 -5 -8 -3 -11 6 -8 8 3 13 11 11 17 -1 7 2 10 7 6 6 -3
8 -12 5 -19 -6 -15 40 -31 59 -20 7 4 8 3 4 -1 -10 -12 133 -56 157 -49 11 4
16 2 12 -4 -3 -5 13 -13 37 -17 23 -4 47 -9 52 -11 73 -23 156 -40 178 -37 16
2 26 0 23 -5 -3 -6 18 -13 47 -17 28 -4 59 -8 67 -10 287 -55 832 -85 930 -50
45 16 79 20 45 5 -28 -12 38 -12 135 0 41 5 106 12 144 15 37 3 73 8 79 12 6
4 25 7 41 8 69 4 146 18 146 27 0 5 5 6 11 3 16 -10 212 37 227 54 8 9 10 10
6 2 -5 -9 -1 -12 12 -8 34 10 145 37 152 37 4 0 0 5 -8 11 -12 8 -11 9 6 4 21
-5 210 49 229 66 5 5 17 9 27 9 10 0 47 12 84 27 52 22 62 29 47 35 -12 6 -9
6 11 3 17 -4 37 0 52 10 13 8 24 13 24 10 0 -3 18 4 40 15 26 13 38 25 34 33
-5 9 -4 9 6 0 15 -14 63 4 53 20 -3 6 -1 7 5 3 14 -9 63 14 55 27 -3 6 -1 7 6
3 6 -4 19 -2 28 6 9 7 18 12 20 10 3 -2 103 48 188 96 139 78 165 95 158 104
-3 7 -1 8 5 4 16 -10 54 12 46 26 -4 6 -3 8 3 5 5 -3 20 1 32 9 19 13 20 18 9
32 -12 15 -11 16 5 3 15 -12 22 -10 57 14 22 15 40 32 40 37 0 5 4 7 9 4 4 -3
41 20 82 51 76 57 106 83 80 68 -10 -5 -12 -4 -7 4 4 6 11 9 16 6 8 -5 41 17
106 74 235 206 378 347 368 363 -4 6 -3 8 3 5 6 -4 34 19 63 51 28 31 65 71
82 89 18 19 27 37 22 44 -4 7 -3 9 3 6 5 -3 16 2 24 11 74 88 108 136 102 144
-3 6 -1 8 4 5 14 -9 37 19 28 33 -4 6 -3 9 2 8 4 -2 10 2 12 7 2 6 23 32 47
60 24 27 44 54 44 60 0 5 13 25 29 44 17 19 28 38 25 42 -2 4 3 10 12 13 11 4
15 14 12 30 -3 15 -1 23 6 20 24 -9 274 442 262 473 -3 8 -2 12 2 9 10 -6 46
64 38 71 -3 3 1 12 9 20 11 10 12 19 5 33 -15 28 -12 37 5 14 14 -19 14 -19
16 1 1 11 1 24 0 28 -1 4 5 15 14 23 14 14 20 36 16 57 -1 5 2 6 7 3 11 -7 85
220 76 235 -4 7 -3 9 3 6 13 -8 86 232 87 285 1 20 4 34 7 33 5 -4 25 78 34
140 3 17 11 64 20 105 8 41 17 93 20 115 2 22 12 94 20 160 19 144 28 608 14
770 -23 269 -64 523 -119 735 -17 63 -33 125 -36 138 -8 40 -56 186 -67 207
-6 11 -12 31 -13 45 -2 14 -8 26 -14 28 -5 2 -8 8 -5 12 3 5 -5 33 -18 62 -13
29 -30 68 -37 85 -7 18 -17 30 -23 26 -6 -4 -7 -1 -2 6 10 17 -24 103 -37 95
-7 -4 -8 -2 -4 4 4 6 1 22 -6 34 -6 13 -13 28 -14 33 -4 23 -52 107 -56 99 -3
-5 -3 -3 -1 5 2 7 -2 20 -9 28 -7 8 -13 20 -14 27 -3 23 -41 76 -49 68 -5 -4
-5 -2 -1 5 8 14 -15 63 -38 82 -9 7 -13 17 -10 22 3 5 -8 21 -23 36 -15 14
-21 22 -13 18 12 -7 11 -3 -3 18 -9 14 -26 41 -36 59 -10 18 -24 32 -31 30 -6
-1 -9 2 -6 7 7 11 -52 111 -65 111 -5 0 -9 4 -9 10 0 10 -80 120 -88 120 -2 0
-1 -7 2 -16 3 -9 2 -12 -5 -9 -5 4 -7 14 -4 24 3 11 -6 28 -25 46 -16 15 -27
32 -24 36 2 4 -6 15 -18 24 -13 8 -23 19 -23 23 0 4 -4 6 -10 4 -5 -2 -7 0 -3
4 4 4 -16 34 -45 68 -28 33 -61 71 -71 83 -10 12 -24 19 -30 16 -6 -3 -8 -3
-4 1 9 10 -52 77 -63 70 -5 -3 -6 1 -4 8 3 8 -26 44 -69 86 -71 68 -96 87 -80
60 5 -9 2 -9 -9 1 -18 15 -23 26 -7 16 6 -3 10 -3 10 2 0 11 -73 69 -83 65 -4
-1 -6 2 -5 7 4 14 -73 82 -85 74 -5 -3 -7 -1 -4 4 9 14 -19 37 -34 27 -7 -4
-9 -3 -6 3 8 13 -17 36 -27 25 -4 -4 -6 -2 -4 4 2 6 -11 23 -28 37 -33 28 -50
35 -38 15 5 -7 3 -8 -5 -4 -7 5 -10 10 -7 13 14 14 -168 148 -185 137 -7 -4
-9 -3 -5 4 8 13 -33 44 -47 35 -6 -3 -7 -1 -4 5 7 10 -82 72 -103 72 -6 0 -10
3 -10 8 0 15 -58 40 -68 30 -7 -7 -10 -5 -9 7 2 19 -188 129 -206 118 -5 -3
-7 -2 -4 4 8 13 -87 58 -104 48 -7 -5 -10 -4 -5 3 8 14 -30 36 -46 26 -6 -4
-9 -3 -5 2 3 5 -11 17 -31 26 -140 66 -174 79 -195 73 -15 -4 -18 -3 -9 3 11
7 10 10 -3 16 -9 3 -22 3 -27 -1 -6 -3 -8 -1 -5 4 6 10 -72 38 -100 36 -7 0
-11 2 -8 6 7 12 -124 53 -148 46 -17 -5 -19 -4 -7 4 13 9 13 11 -2 12 -27 2
-32 4 -45 12 -7 4 -25 10 -40 12 -16 3 -66 16 -112 30 -101 30 -147 36 -143
17 1 -8 -2 -11 -7 -7 -6 3 -8 11 -5 19 6 15 -162 51 -191 40 -14 -6 -16 -4
-10 6 6 10 3 12 -15 7 -12 -3 -34 -1 -48 4 -14 5 -46 12 -71 14 -25 3 -71 9
-101 14 -73 13 -133 13 -105 1 12 -5 14 -9 6 -9 -8 -1 -23 6 -33 15 -15 15
-57 17 -320 20 -202 2 -348 -2 -438 -11z m-177 -52 c-7 -2 -21 -2 -30 0 -10 3
-4 5 12 5 17 0 24 -2 18 -5z m1054 -9 c-3 -3 -12 -4 -19 -1 -8 3 -5 6 6 6 11
1 17 -2 13 -5z m-182 -48 c66 -2 127 -7 135 -10 8 -2 34 -7 58 -10 34 -5 42
-4 36 6 -6 10 -5 10 7 1 8 -6 32 -14 54 -17 22 -3 76 -12 120 -21 44 -9 88
-14 98 -11 10 2 14 0 10 -7 -4 -6 2 -8 15 -5 12 3 22 2 24 -3 2 -5 21 -10 43
-13 22 -2 48 -7 58 -11 9 -4 24 -4 33 -1 9 4 25 -1 34 -9 9 -9 35 -18 56 -20
21 -3 55 -13 74 -22 19 -9 49 -17 67 -17 17 -1 29 -3 27 -5 -6 -6 97 -44 123
-45 11 0 19 -4 17 -7 -5 -9 68 -29 79 -22 6 3 7 1 3 -5 -5 -8 0 -12 13 -12 10
0 34 -8 53 -17 62 -31 71 -35 107 -48 20 -7 54 -21 76 -31 22 -10 46 -17 54
-15 8 1 10 -2 5 -10 -5 -9 -2 -10 12 -5 10 4 15 4 11 0 -9 -10 122 -76 135
-68 6 4 9 3 5 -2 -3 -5 25 -25 61 -44 37 -19 70 -39 73 -44 4 -5 12 -5 19 -1
8 5 11 4 7 -2 -4 -5 6 -16 21 -24 15 -7 39 -22 54 -33 15 -10 31 -15 39 -11 8
6 10 4 4 -5 -6 -10 -4 -12 9 -7 9 4 14 3 11 -2 -7 -13 35 -42 49 -34 6 3 8 3
4 -2 -5 -5 1 -13 11 -19 10 -6 46 -30 80 -54 34 -24 66 -40 73 -36 6 4 8 3 5
-3 -9 -14 19 -37 33 -28 6 4 10 3 9 -2 -4 -21 2 -24 19 -12 15 12 16 12 4 -2
-10 -13 -9 -19 3 -29 8 -7 15 -10 15 -7 0 3 13 -7 28 -21 50 -48 73 -63 84
-56 6 4 8 3 5 -3 -4 -6 16 -30 44 -53 41 -35 53 -40 61 -29 8 11 9 10 4 -4 -4
-12 9 -30 41 -60 26 -23 58 -54 71 -70 14 -15 33 -26 41 -25 9 2 15 -2 14 -9
-1 -6 23 -38 55 -71 31 -32 78 -82 103 -110 25 -28 50 -48 54 -44 5 4 5 2 2
-4 -3 -6 11 -28 33 -49 22 -21 37 -42 34 -46 -3 -5 4 -14 16 -21 11 -7 20 -19
20 -26 0 -7 5 -10 10 -7 6 3 10 2 10 -4 0 -6 33 -54 74 -108 40 -54 81 -113
90 -130 9 -18 19 -33 22 -33 3 0 3 3 0 8 -2 4 2 16 10 27 8 10 14 14 14 8 0
-7 -4 -14 -9 -17 -17 -11 -4 -43 54 -131 33 -49 66 -102 72 -117 13 -30 28
-36 37 -15 3 6 3 -1 -1 -16 -4 -20 1 -37 16 -57 11 -16 21 -34 21 -40 0 -6 4
-8 10 -5 6 4 7 -1 3 -11 -5 -13 -3 -15 7 -9 8 5 11 4 6 -3 -9 -15 15 -63 28
-55 6 3 8 3 4 -1 -6 -7 9 -44 63 -161 10 -22 31 -70 47 -108 16 -37 32 -64 37
-60 4 5 5 2 1 -5 -9 -15 23 -104 34 -97 5 3 6 -5 2 -17 -4 -16 -2 -19 8 -13 8
5 11 4 7 -2 -8 -13 56 -217 65 -207 4 3 4 -4 1 -17 -5 -17 -3 -20 7 -14 9 5
11 4 6 -4 -4 -7 -4 -20 0 -29 8 -20 10 -30 12 -60 1 -13 5 -21 10 -19 4 3 8
-5 8 -16 1 -19 19 -103 28 -132 1 -5 9 -45 16 -87 9 -49 17 -73 22 -65 5 7 6
-5 3 -28 -5 -32 -4 -37 5 -25 10 13 11 13 7 -1 -3 -9 3 -86 13 -170 11 -85 24
-210 29 -279 12 -153 7 -530 -9 -663 -6 -54 -10 -105 -9 -115 1 -9 -1 -24 -4
-32 -4 -8 -9 -40 -11 -70 -2 -30 -6 -62 -9 -70 -3 -8 -15 -71 -27 -140 -25
-139 -80 -347 -136 -515 -20 -60 -37 -117 -38 -127 -1 -9 -7 -22 -13 -30 -14
-16 -28 -68 -24 -87 1 -7 -2 -10 -8 -7 -6 4 -13 -5 -17 -21 -4 -15 -28 -73
-55 -127 -51 -105 -57 -122 -36 -110 6 4 9 4 5 0 -3 -4 -10 -7 -14 -6 -4 1
-20 -24 -36 -56 -22 -43 -28 -66 -24 -88 6 -27 5 -29 -7 -12 -13 18 -14 18
-20 2 -4 -10 -4 -22 -1 -27 3 -5 0 -8 -6 -7 -7 2 -16 -7 -21 -19 -6 -16 -5
-23 3 -23 6 0 9 -2 6 -5 -3 -3 -532 -5 -1176 -5 l-1171 0 -26 25 c-14 14 -25
28 -25 30 0 13 -84 79 -101 80 -11 1 -28 10 -37 20 -16 17 -16 17 11 0 15 -9
27 -15 27 -12 0 12 -122 77 -132 71 -7 -4 -8 -2 -4 4 9 15 -37 34 -61 26 -15
-5 -15 -4 -4 4 12 9 9 12 -15 18 -16 4 -35 11 -41 16 -7 6 -21 7 -30 4 -10 -4
-14 -4 -10 0 11 11 -80 45 -99 37 -13 -5 -15 -3 -9 7 6 10 3 12 -13 8 -12 -4
-20 -2 -17 2 3 5 -3 9 -12 9 -10 0 -52 9 -93 21 -41 11 -96 22 -122 23 -27 1
-48 6 -48 11 0 4 -18 6 -39 4 -22 -2 -37 0 -35 4 8 13 -61 9 -75 -4 -10 -11
-12 -10 -9 2 2 12 -9 16 -52 18 -30 1 -65 4 -78 7 l-22 5 2 352 3 353 45 0
c25 0 61 -3 80 -7 56 -12 225 -23 350 -23 138 1 332 23 323 38 -3 6 -1 7 6 3
12 -8 107 10 126 24 6 4 41 15 78 25 50 13 65 20 55 27 -10 7 -8 8 5 4 25 -8
234 94 220 107 -3 4 1 7 11 7 9 0 14 4 11 10 -3 5 0 7 8 4 8 -3 34 10 58 28
24 18 57 41 72 51 16 11 25 23 21 30 -4 7 -3 9 1 4 11 -9 55 31 51 47 -2 6 -1
7 2 3 2 -5 15 2 28 14 13 12 21 27 17 32 -4 7 1 8 13 3 10 -4 16 -5 13 -2 -3
3 17 29 44 58 27 29 64 77 84 106 19 28 39 55 44 58 5 3 9 12 9 19 0 8 8 24
18 35 9 11 17 24 17 28 1 4 11 23 23 42 12 19 20 41 17 48 -3 7 -1 11 4 8 11
-7 23 22 14 36 -3 7 -1 8 5 4 7 -4 14 4 18 21 4 15 10 33 14 38 17 21 51 145
44 157 -4 7 -4 10 1 6 10 -9 97 331 88 345 -3 6 -2 7 4 4 9 -6 50 117 45 136
-1 4 3 7 8 7 6 0 10 6 10 13 0 6 12 34 26 60 14 27 27 61 29 75 1 15 3 31 4
35 0 5 5 6 10 3 11 -7 33 43 25 56 -4 6 -2 8 3 5 13 -8 26 20 16 35 -4 7 -1 8
7 3 10 -6 12 -4 7 8 -3 9 -3 16 1 14 4 -1 8 2 9 7 1 5 5 12 10 15 16 11 54 92
48 102 -4 5 -2 9 3 9 31 0 37 173 8 203 -7 7 -15 20 -19 31 -5 11 -14 17 -25
14 -12 -4 -18 1 -18 13 0 13 3 15 13 7 17 -14 17 4 1 21 -11 10 -10 11 2 6 16
-6 19 -1 80 110 18 33 40 70 47 82 8 12 11 28 7 34 -5 8 -3 9 6 4 10 -6 12 -4
7 8 -3 9 -2 16 3 14 12 -3 51 73 43 86 -3 6 -2 7 4 4 13 -8 36 41 27 55 -4 7
-2 8 5 4 7 -5 19 8 32 36 11 24 31 61 44 83 32 52 65 154 75 230 8 68 -3 184
-22 218 -7 12 -11 28 -9 36 1 8 -2 10 -10 5 -8 -4 -10 -3 -5 4 15 24 -93 190
-115 176 -5 -3 -9 -2 -8 3 3 18 -1 36 -7 30 -4 -3 -15 5 -26 18 -19 24 -46 26
-32 3 4 -7 2 -8 -4 -4 -6 4 -9 13 -6 20 8 22 -171 105 -291 135 -22 5 -76 19
-120 31 -44 11 -100 22 -125 23 -25 1 -47 5 -50 9 -11 14 -342 49 -500 53 -91
3 -183 7 -205 10 -40 5 -475 -8 -615 -19 -41 -3 -88 -6 -105 -6 -50 0 -283
-30 -400 -52 -60 -11 -138 -25 -172 -30 -35 -6 -60 -14 -57 -19 3 -5 -1 -6 -9
-3 -24 9 -416 -104 -441 -127 -6 -5 -17 -9 -25 -9 -9 0 -29 -7 -45 -15 -15 -8
-35 -15 -43 -15 -8 0 -11 -5 -7 -12 4 -6 3 -8 -3 -5 -15 10 -114 -33 -106 -46
3 -6 1 -7 -5 -3 -16 10 -164 -66 -149 -77 8 -5 5 -6 -8 -3 -21 5 -140 -65
-129 -76 3 -3 0 -9 -7 -14 -8 -4 -10 -3 -5 4 20 32 -38 -7 -111 -75 -30 -27
-42 -46 -37 -55 4 -7 4 -10 -1 -6 -13 12 -35 -12 -28 -29 4 -10 2 -14 -5 -10
-15 10 -60 -86 -73 -158 -17 -92 -1 -189 48 -295 9 -19 48 -82 88 -140 39 -58
75 -113 78 -123 4 -9 12 -16 18 -15 6 2 14 -4 16 -12 4 -13 3 -13 -6 0 -6 8
-11 11 -10 5 0 -5 11 -23 25 -40 15 -16 23 -23 18 -15 -4 9 -3 12 2 7 5 -5 9
-16 9 -25 0 -9 6 -16 13 -14 8 1 11 -2 6 -9 -3 -6 -3 -14 2 -18 5 -3 16 -19
25 -36 9 -16 21 -29 28 -27 7 1 10 -2 6 -8 -8 -13 13 -52 25 -45 5 3 11 1 15
-5 3 -5 2 -10 -4 -10 -6 0 1 -17 15 -37 14 -21 30 -37 36 -35 5 1 7 -2 4 -7
-4 -5 17 -45 45 -88 45 -70 76 -111 54 -74 -6 10 -4 12 4 7 7 -5 10 -15 6 -24
-4 -12 -1 -12 16 4 l23 19 -17 -24 c-15 -23 -15 -26 9 -55 14 -16 30 -41 35
-54 5 -13 13 -20 19 -17 5 3 7 0 5 -8 -3 -7 3 -22 15 -32 11 -10 20 -24 20
-31 0 -7 5 -16 12 -20 6 -4 8 -3 5 3 -3 5 -1 10 6 10 7 0 13 -8 13 -18 0 -10
-5 -15 -11 -13 -5 3 -2 -1 8 -9 10 -9 17 -17 16 -19 -1 -1 7 -21 18 -43 54
-105 81 -270 51 -306 -16 -19 -73 -55 -64 -40 7 10 -8 15 -41 14 -7 -1 -10 3
-7 8 2 5 -6 11 -20 15 -13 3 -32 14 -42 25 -9 10 -21 16 -26 13 -4 -3 -7 -2
-6 3 3 10 -53 68 -66 68 -5 0 -11 7 -13 15 -4 13 -3 13 6 0 6 -8 11 -10 11 -4
0 6 -11 21 -25 34 -13 12 -24 25 -23 29 3 15 -15 40 -25 34 -6 -4 -7 -1 -2 7
4 7 4 15 -1 19 -5 3 -15 19 -22 35 -11 24 -15 27 -24 15 -8 -11 -9 -11 -4 4 4
14 -17 57 -51 102 -5 6 -14 23 -21 38 -7 17 -17 25 -24 21 -7 -4 -8 -3 -4 4 4
7 -3 22 -15 34 -12 13 -18 17 -14 9 5 -9 4 -12 -3 -7 -6 4 -9 13 -6 20 3 7 -1
20 -8 27 -7 8 -19 25 -26 40 -7 14 -27 39 -43 57 -17 18 -27 32 -24 32 4 0
-10 20 -30 45 -21 25 -42 42 -48 38 -6 -3 -7 -1 -3 6 9 14 -11 41 -27 37 -7
-1 -9 -1 -4 1 14 9 7 25 -9 19 -8 -3 -13 -2 -10 3 13 21 -225 268 -245 255 -7
-4 -9 -3 -6 3 8 13 -59 67 -72 58 -5 -3 -13 0 -17 6 -4 8 -3 9 4 5 7 -4 12 -5
12 -2 0 12 -161 86 -172 80 -7 -5 -8 -2 -3 6 6 9 2 10 -15 5 -13 -4 -20 -3
-17 2 4 6 -15 15 -41 21 -26 6 -56 14 -66 18 -15 6 -17 4 -11 -7 7 -11 5 -11
-10 1 -28 23 -284 20 -345 -4 -25 -10 -55 -20 -67 -22 -61 -12 -229 -126 -216
-147 3 -6 2 -7 -4 -4 -16 10 -54 -37 -47 -59 4 -14 3 -16 -4 -5 -8 11 -14 8
-28 -15 -10 -16 -23 -32 -29 -36 -6 -5 -6 -8 0 -8 6 0 5 -4 -1 -8 -18 -11 -77
-142 -78 -173 -1 -15 -4 -25 -7 -23 -16 10 -42 -141 -46 -272 -6 -138 10 -314
27 -314 5 0 6 -10 3 -22 -4 -19 -3 -20 7 -8 9 12 10 11 5 -7 -7 -26 4 -75 16
-67 5 3 6 -2 3 -10 -3 -8 4 -36 15 -62 12 -25 21 -53 21 -61 0 -8 5 -11 12 -7
7 4 8 3 4 -4 -9 -15 12 -54 24 -47 6 3 7 -1 4 -9 -3 -8 4 -29 15 -45 12 -16
21 -34 21 -39 0 -27 196 -276 210 -267 4 3 7 -1 6 -8 -2 -17 142 -149 154
-142 6 4 9 2 8 -3 -5 -16 95 -92 113 -87 10 3 20 1 24 -4 4 -7 -1 -8 -12 -5
-29 9 23 -31 102 -78 108 -65 286 -150 302 -144 8 3 11 2 8 -3 -7 -12 31 -24
46 -15 7 4 9 3 6 -4 -4 -6 20 -20 60 -36 131 -49 318 -107 353 -110 19 -1 46
-8 59 -15 12 -7 32 -11 42 -8 10 3 17 2 14 -3 -6 -10 62 -23 75 -15 6 4 8 11
5 16 -4 5 2 6 11 2 11 -4 13 -8 6 -11 -30 -10 -5 -20 87 -36 55 -10 110 -15
123 -11 18 5 20 4 8 -4 -12 -9 -8 -11 18 -13 74 -4 90 -6 157 -16 106 -17 290
-34 392 -35 62 -1 88 -5 83 -12 -5 -6 -9 -170 -10 -365 0 -195 -2 -355 -3
-356 -1 -1 -47 -5 -102 -9 -55 -3 -121 -11 -149 -16 -27 -5 -51 -9 -53 -9 -2
0 -1 -6 3 -12 6 -10 4 -10 -7 0 -7 6 -20 12 -28 12 -14 0 -14 -2 -1 -11 12 -8
8 -9 -15 -6 -38 7 -126 -13 -118 -26 4 -6 1 -7 -6 -3 -14 9 -151 -24 -151 -36
0 -4 -7 -4 -17 -1 -12 5 -14 3 -8 -7 5 -8 4 -11 -3 -6 -16 9 -173 -54 -165
-67 3 -5 1 -7 -5 -4 -15 10 -43 -3 -35 -16 3 -6 1 -7 -6 -3 -6 4 -24 -2 -40
-13 -16 -12 -33 -21 -39 -21 -5 0 -15 -6 -21 -14 -9 -11 -9 -15 1 -18 8 -3 6
-7 -6 -11 -10 -4 -15 -3 -11 3 3 6 1 10 -5 10 -6 0 -13 -7 -16 -15 -4 -8 -10
-12 -15 -9 -8 4 -13 -8 -11 -27 1 -3 -9 -5 -21 -5 -13 1 -21 -4 -19 -12 1 -8
-2 -11 -7 -8 -13 8 -42 -34 -34 -48 3 -6 3 -8 -2 -4 -4 4 -13 1 -19 -7 -10
-13 -157 -15 -1171 -15 -1091 0 -1160 1 -1170 17 -5 10 -29 53 -52 95 -23 43
-43 73 -45 66 -3 -7 -7 -2 -10 10 -4 13 -2 20 4 16 5 -3 4 3 -3 15 -10 15 -16
17 -22 8 -5 -7 -6 -4 -2 10 7 24 -27 97 -40 85 -5 -4 -5 -2 -2 5 9 15 -2 45
-14 37 -5 -3 -6 2 -3 10 3 8 -1 28 -9 43 -25 46 -72 166 -117 296 -14 42 -30
74 -33 70 -4 -4 -6 2 -5 13 5 32 -33 165 -45 157 -5 -3 -7 -1 -4 4 4 6 4 26 0
44 -5 29 -7 30 -15 14 -6 -15 -7 -13 -3 7 6 29 -11 115 -26 134 -5 6 -7 13 -4
16 3 3 -2 36 -10 74 -20 90 -20 86 -39 249 -9 77 -21 147 -26 156 -5 9 -6 35
-3 57 3 23 3 48 -1 57 -3 9 -8 94 -11 187 -2 94 -7 173 -9 175 -3 3 -1 16 4
28 5 13 10 72 11 132 1 91 10 178 43 453 7 54 44 234 67 324 17 66 18 85 8
101 -11 17 -10 18 3 8 12 -11 16 -5 27 40 7 29 21 76 32 105 11 30 17 57 14
62 -3 5 -2 10 2 12 5 1 16 28 26 58 20 59 42 116 63 167 8 17 14 34 14 37 0 3
11 30 25 61 14 31 23 61 19 67 -5 7 -3 8 6 3 10 -6 12 -4 6 11 -4 10 -4 15 0
11 6 -6 45 60 49 83 1 3 13 29 28 58 15 29 25 58 21 64 -4 6 -3 8 3 5 9 -6 20
6 21 23 0 3 16 30 36 60 20 30 34 61 31 68 -3 7 -1 11 4 8 4 -3 14 7 22 22 7
15 28 51 46 79 19 31 30 60 27 70 -4 13 -3 15 4 5 7 -11 13 -7 28 16 10 17 49
74 87 126 67 97 77 113 55 100 -7 -4 -8 -3 -4 5 4 6 11 9 15 6 12 -7 82 86 74
98 -3 5 -1 7 4 4 14 -9 47 29 37 44 -4 7 -3 10 3 6 5 -3 22 8 38 25 26 27 27
32 15 51 -12 20 -12 21 4 8 14 -12 19 -10 41 13 14 15 22 32 19 38 -4 6 -3 8
3 5 5 -3 74 60 154 140 79 79 157 154 172 165 23 16 26 23 15 30 -10 8 -9 9 3
5 9 -3 25 2 35 11 11 9 37 33 59 51 22 19 39 40 37 45 -2 6 0 8 4 4 10 -11 35
12 27 25 -3 6 -1 7 6 3 15 -10 43 13 34 27 -3 6 -1 7 6 3 6 -4 30 7 54 25 57
44 66 53 45 46 -25 -9 -22 0 3 14 15 8 19 8 15 0 -13 -20 9 -10 69 34 33 24
59 49 57 55 -1 6 2 8 8 5 6 -4 30 6 53 21 57 39 68 45 116 72 23 12 39 27 36
32 -3 5 1 7 9 4 8 -3 28 3 43 14 15 11 77 44 137 75 59 30 104 57 100 59 -5 3
-3 3 4 1 8 -2 19 0 25 4 7 4 14 8 17 9 15 3 48 19 71 35 14 10 29 16 33 12 3
-3 6 -1 6 5 0 6 7 9 15 6 8 -4 15 -1 15 5 0 6 6 11 14 11 7 0 31 8 52 17 22 9
44 18 49 19 33 9 104 36 125 48 14 8 27 14 30 14 3 0 22 3 43 7 26 5 37 12 33
21 -3 7 -1 16 5 19 5 4 8 1 7 -6 -2 -6 3 -14 11 -17 9 -3 11 0 6 8 -5 8 -4 11
3 6 16 -10 63 4 55 17 -3 5 -1 7 5 3 10 -6 221 43 232 54 3 3 13 5 23 6 61 3
68 5 61 16 -5 8 -2 9 9 5 9 -3 60 3 114 13 93 19 114 23 208 36 63 9 92 11
220 19 66 3 165 10 220 13 55 4 147 4 205 0 58 -3 159 -9 225 -12z m-918 -12
c-3 -3 -12 -4 -19 -1 -8 3 -5 6 6 6 11 1 17 -2 13 -5z m1210 0 c-3 -3 -12 -4
-19 -1 -8 3 -5 6 6 6 11 1 17 -2 13 -5z m640 -70 c-3 -3 -12 -4 -19 -1 -8 3
-5 6 6 6 11 1 17 -2 13 -5z m440 -220 c-3 -3 -12 -4 -19 -1 -8 3 -5 6 6 6 11
1 17 -2 13 -5z m-3576 -31 c-11 -5 -11 -7 0 -15 10 -6 7 -7 -10 -3 -17 5 -22
4 -16 -5 6 -9 4 -11 -5 -5 -10 6 -9 11 5 22 11 7 24 13 29 12 6 0 5 -3 -3 -6z
m154 -13 c3 -5 1 -10 -4 -10 -6 0 -11 5 -11 10 0 6 2 10 4 10 3 0 8 -4 11 -10z
m-278 -72 c0 -7 -12 -14 -26 -15 l-26 -1 25 14 c14 7 25 13 26 14 0 0 1 -6 1
-12z m-47 -62 c0 -2 -7 -7 -16 -10 -8 -3 -12 -2 -9 4 6 10 25 14 25 6z m40 0
c0 -3 -4 -8 -10 -11 -5 -3 -10 -1 -10 4 0 6 5 11 10 11 6 0 10 -2 10 -4z
m-165 -34 c-3 -3 -11 0 -18 7 -9 10 -8 11 6 5 10 -3 15 -9 12 -12z m4375 11
c0 -1 -8 -7 -18 -12 -13 -7 -19 -6 -19 2 0 7 9 13 19 13 10 0 18 -1 18 -3z
m240 -148 c0 -2 -10 -10 -22 -16 -21 -11 -22 -11 -9 4 13 16 31 23 31 12z m80
-57 c0 -13 -5 -9 -31 19 l-24 26 27 -19 c15 -10 28 -22 28 -26z m-4911 8 c9
-11 9 -16 -1 -22 -7 -4 -10 -4 -6 1 4 4 3 14 -3 22 -6 7 -9 13 -6 13 2 0 10
-6 16 -14z m-124 -26 c-3 -5 -11 -10 -16 -10 -6 0 -7 5 -4 10 3 6 11 10 16 10
6 0 7 -4 4 -10z m5060 0 c3 -5 1 -10 -4 -10 -6 0 -11 5 -11 10 0 6 2 10 4 10
3 0 8 -4 11 -10z m91 -154 c1 -7 -4 -13 -12 -13 -9 0 -11 4 -4 12 5 7 8 15 5
18 -3 4 -2 5 2 2 4 -3 8 -11 9 -19z m-5322 -55 c3 -4 -4 -17 -17 -27 -22 -19
-22 -19 -4 2 9 11 14 24 10 27 -3 4 -4 7 0 7 3 0 8 -4 11 -9z m5399 -16 c-7
-21 -12 -19 -10 4 0 11 5 18 9 15 4 -3 5 -11 1 -19z m-5592 -68 c-10 -9 -11
-8 -5 6 3 10 9 15 12 12 3 -3 0 -11 -7 -18z m29 -71 c0 -2 -8 -10 -17 -17 -16
-13 -17 -12 -4 4 13 16 21 21 21 13z m-130 -30 c0 -3 -4 -8 -10 -11 -5 -3 -10
-1 -10 4 0 6 5 11 10 11 6 0 10 -2 10 -4z m-80 -80 c0 -3 -4 -8 -10 -11 -5 -3
-10 -1 -10 4 0 6 5 11 10 11 6 0 10 -2 10 -4z m6137 -51 c0 -8 -4 -12 -9 -9
-5 3 -6 10 -3 15 9 13 12 11 12 -6z m28 -35 c3 -5 1 -10 -4 -10 -6 0 -11 5
-11 10 0 6 2 10 4 10 3 0 8 -4 11 -10z m-1485 -25 c0 -2 -6 -5 -13 -8 -8 -3
-14 1 -14 8 0 7 6 11 14 8 7 -3 13 -6 13 -8z m-4710 -21 c0 -8 -19 -13 -24 -6
-3 5 1 9 9 9 8 0 15 -2 15 -3z m3757 -10 c-3 -3 -12 -4 -19 -1 -8 3 -5 6 6 6
11 1 17 -2 13 -5z m144 -3 c-8 -5 164 -11 405 -14 287 -4 456 -10 537 -21 65
-8 125 -12 134 -9 8 3 18 1 22 -5 4 -7 34 -13 68 -14 34 -2 58 -7 55 -12 -3
-5 9 -6 29 -3 34 6 34 6 9 -8 -14 -8 -20 -15 -15 -15 6 0 -1 -6 -15 -13 -15
-8 -24 -20 -22 -31 2 -10 -1 -16 -5 -13 -10 6 -77 -122 -69 -131 3 -3 2 -10
-3 -16 -12 -15 -29 -72 -38 -126 -4 -25 -8 -193 -10 -375 -2 -297 -5 -347 -28
-495 -14 -91 -25 -174 -24 -185 2 -32 0 -45 -8 -44 -21 3 -33 -2 -27 -13 5 -7
3 -8 -5 -4 -7 5 -19 0 -27 -10 -9 -11 -13 -13 -9 -6 4 7 -27 -10 -69 -38 -42
-28 -74 -55 -71 -61 3 -5 0 -6 -8 -3 -8 3 -30 -10 -50 -30 -19 -19 -37 -32
-39 -30 -2 2 -26 -20 -54 -48 -27 -29 -40 -45 -29 -37 18 13 19 13 6 -3 -7
-10 -17 -16 -21 -13 -11 7 -116 -104 -112 -117 1 -5 -1 -7 -6 -4 -12 7 -56
-40 -48 -52 3 -5 -3 -20 -14 -32 -11 -13 -20 -19 -20 -15 0 5 7 17 17 27 9 10
12 18 7 17 -14 -1 -67 -69 -67 -85 0 -8 -3 -12 -5 -9 -7 7 -32 -15 -32 -29 0
-7 3 -6 9 2 6 10 10 10 19 -1 10 -12 8 -14 -14 -11 -23 2 -57 -5 -104 -23 -8
-4 -19 -5 -23 -4 -4 1 -36 -4 -70 -10 -104 -18 -115 -19 -332 -24 -115 -3
-218 -7 -228 -9 -9 -2 -14 0 -11 5 3 6 -12 9 -38 8 -23 -1 -72 4 -107 9 -35 6
-67 9 -72 7 -4 -3 -11 -1 -14 5 -4 6 -15 8 -26 5 -11 -4 -19 -2 -19 5 0 7 -8
10 -20 7 -10 -3 -20 -2 -22 2 -5 10 -151 56 -171 53 -10 -1 -15 3 -12 8 3 6
-3 10 -14 10 -12 0 -21 5 -21 11 0 5 -4 7 -10 4 -5 -3 -10 -1 -10 6 0 7 -3 10
-6 7 -3 -4 -13 0 -22 8 -9 8 -44 33 -77 54 -33 21 -82 60 -110 87 -27 26 -53
46 -57 45 -5 -1 -8 3 -8 9 0 18 -62 89 -73 82 -6 -4 -8 0 -4 10 3 10 2 17 -3
17 -19 0 -10 -29 16 -49 15 -12 23 -21 18 -21 -4 0 23 -31 62 -70 38 -38 75
-70 82 -70 7 0 10 -5 7 -10 -4 -6 -3 -9 2 -8 5 2 29 -13 53 -33 67 -53 195
-120 216 -112 11 4 15 2 11 -4 -6 -9 69 -38 98 -38 6 0 12 -3 15 -6 3 -3 55
-16 115 -29 83 -17 158 -24 306 -27 204 -6 459 10 470 29 4 6 14 8 23 5 9 -4
39 -2 66 4 28 6 55 9 61 7 6 -2 -42 -58 -107 -123 -65 -66 -117 -123 -116
-128 1 -4 -1 -6 -5 -6 -22 4 -25 -3 -7 -17 18 -14 18 -15 -4 -4 -18 9 -28 7
-52 -10 -17 -12 -28 -26 -25 -31 4 -5 0 -6 -8 -3 -9 3 -22 -4 -31 -18 -9 -12
-16 -19 -16 -15 0 4 -30 -12 -67 -36 -38 -23 -87 -51 -110 -61 -23 -10 -40
-23 -37 -28 4 -5 -4 -8 -17 -6 -15 2 -23 -2 -22 -9 2 -7 -4 -10 -13 -6 -9 3
-19 1 -23 -4 -4 -6 -33 -7 -81 -2 -41 5 -93 10 -115 10 -22 1 -44 5 -50 9 -9
6 -113 31 -145 35 -8 1 -29 9 -47 18 -18 10 -36 16 -40 16 -4 -1 -33 9 -63 23
-57 26 -87 37 -95 38 -3 0 -15 8 -26 19 -12 11 -28 17 -37 14 -10 -4 -13 -2
-8 5 4 7 3 12 -2 12 -5 0 -26 11 -46 25 -21 14 -42 22 -48 19 -6 -4 -8 -2 -5
3 4 6 0 16 -8 23 -8 7 -15 9 -15 4 0 -4 -5 -3 -11 3 -5 5 -12 31 -15 56 -5 58
-57 194 -81 214 -10 8 -12 12 -6 8 9 -4 11 -1 7 9 -3 9 -10 13 -15 10 -5 -3
-6 1 -3 9 5 14 -12 34 -31 37 -5 1 -9 8 -7 16 2 7 -6 26 -16 41 -11 16 -36 54
-57 85 -21 32 -42 55 -46 52 -5 -3 -6 1 -4 9 3 7 -7 31 -23 53 -15 21 -40 60
-55 87 -16 26 -32 45 -36 43 -4 -3 -8 0 -8 7 0 7 -8 25 -18 40 -14 22 -20 25
-27 15 -7 -9 -8 -8 -4 5 6 19 -39 97 -56 97 -5 0 -7 4 -4 8 2 4 0 14 -5 22 -8
13 -10 13 -19 0 -8 -11 -9 -7 -4 14 5 22 4 27 -6 21 -8 -5 -11 -3 -8 6 2 7
-10 33 -29 57 -18 24 -33 48 -33 53 0 6 -5 7 -12 3 -7 -5 -8 -3 -3 5 4 8 -6
26 -26 48 -19 20 -27 33 -19 29 8 -4 6 0 -4 8 -11 9 -16 16 -10 16 5 0 1 7 -9
14 -10 8 -18 17 -18 20 1 13 -64 96 -67 86 -2 -6 2 -18 10 -28 12 -15 11 -16
-5 -3 -12 10 -16 22 -13 36 3 13 -1 37 -10 54 -20 40 -14 47 25 26 17 -8 31
-12 31 -8 0 4 5 2 12 -5 7 -7 20 -12 30 -12 10 0 18 -4 18 -10 0 -5 7 -6 17
-3 11 4 14 3 9 -5 -4 -7 4 -17 21 -24 32 -15 38 -18 77 -53 16 -13 32 -22 37
-19 5 3 9 -1 9 -10 0 -8 14 -26 30 -39 17 -14 30 -30 30 -35 0 -5 7 -15 16
-23 8 -7 24 -29 35 -48 11 -20 38 -65 60 -101 21 -36 46 -80 55 -97 9 -18 21
-30 27 -26 6 4 8 0 4 -9 -3 -9 3 -25 15 -38 11 -11 21 -27 22 -33 3 -22 74
-128 80 -119 3 4 -5 24 -17 43 -26 42 -37 60 -74 127 -16 28 -33 49 -37 45 -4
-5 -6 -1 -4 7 4 21 -83 171 -95 163 -6 -4 -8 0 -5 9 4 8 -4 26 -16 39 -12 13
-23 28 -23 32 -2 18 -115 137 -129 137 -9 0 -12 5 -8 13 4 6 4 9 0 5 -8 -6
-17 -1 -51 30 -8 7 -20 10 -26 6 -8 -4 -9 -3 -5 4 7 11 -21 26 -133 75 -19 8
-40 13 -47 10 -8 -3 -16 6 -21 24 -14 51 -5 255 12 271 4 4 5 -4 1 -18 l-6
-25 13 25 c17 36 70 114 82 122 5 4 10 13 10 20 1 7 7 12 14 10 7 -1 26 9 43
23 16 14 33 25 37 25 4 0 17 9 29 20 12 12 22 18 22 15 0 -4 12 2 28 13 42 29
210 116 274 142 31 13 54 28 51 33 -4 6 -1 7 6 2 8 -4 25 2 43 15 16 12 32 19
35 16 4 -3 0 -6 -7 -6 -7 0 -11 -2 -8 -5 2 -3 49 11 104 31 54 20 155 51 224
70 69 18 127 34 130 35 3 1 8 1 11 1 4 -1 22 3 40 9 19 6 50 12 69 14 19 3 53
9 75 15 97 23 499 71 590 70 48 -1 76 4 90 14 11 9 25 15 30 16 6 0 4 -4 -4
-9z m793 0 c4 -5 -3 -7 -14 -4 -23 6 -26 13 -6 13 8 0 17 -4 20 -9z m-1387
-17 c-3 -3 -12 -4 -19 -1 -8 3 -5 6 6 6 11 1 17 -2 13 -5z m-3449 -18 c-7 -8
-15 -12 -17 -11 -5 6 10 25 20 25 5 0 4 -6 -3 -14z m3359 8 c-3 -3 -12 -4 -19
-1 -8 3 -5 6 6 6 11 1 17 -2 13 -5z m360 0 c-3 -3 -12 -4 -19 -1 -8 3 -5 6 6
6 11 1 17 -2 13 -5z m1300 0 c-3 -3 -12 -4 -19 -1 -8 3 -5 6 6 6 11 1 17 -2
13 -5z m260 -10 c-3 -3 -12 -4 -19 -1 -8 3 -5 6 6 6 11 1 17 -2 13 -5z m1214
-11 c13 -16 12 -17 -3 -4 -17 13 -22 21 -14 21 2 0 10 -8 17 -17z m-3304 -29
c-3 -3 -12 -4 -19 -1 -8 3 -5 6 6 6 11 1 17 -2 13 -5z m2208 -14 c-3 -5 14
-14 37 -20 24 -6 67 -20 97 -31 29 -11 63 -17 75 -14 13 4 16 3 9 -2 -8 -6 9
-17 52 -33 36 -13 65 -28 65 -32 0 -4 7 -4 17 -1 12 5 14 3 8 -7 -6 -10 -4
-12 8 -7 9 3 16 3 14 -1 -1 -5 22 -32 51 -62 28 -30 55 -63 58 -72 3 -10 9
-16 13 -14 4 3 8 0 9 -7 1 -7 13 -46 28 -87 22 -62 27 -90 26 -161 -1 -47 -8
-107 -16 -133 -8 -27 -12 -55 -9 -64 4 -14 3 -14 -5 -3 -8 11 -11 10 -16 -6
-4 -11 -5 -26 -3 -34 2 -8 2 -10 -1 -6 -2 5 -11 -1 -19 -12 -8 -12 -11 -26 -7
-33 4 -7 3 -8 -4 -4 -7 4 -22 -15 -40 -52 -16 -33 -36 -70 -45 -83 -10 -13
-17 -32 -17 -42 0 -10 -4 -16 -9 -13 -5 3 -14 -9 -21 -27 -7 -17 -26 -53 -43
-80 -25 -40 -27 -50 -16 -65 11 -14 11 -15 -1 -5 -11 11 -20 2 -48 -48 -19
-33 -31 -63 -28 -66 3 -4 -3 -12 -14 -20 -16 -11 -30 -11 -91 3 -59 13 -86 14
-153 6 -85 -11 -219 -50 -211 -61 5 -9 -54 -5 -62 3 -4 3 -1 6 5 6 7 0 12 5
12 11 0 5 -6 7 -12 3 -10 -6 -10 -4 -2 7 11 15 18 61 19 121 0 20 3 34 6 33 3
-2 12 40 20 93 13 92 15 234 7 564 -2 64 0 114 5 111 4 -2 7 14 7 36 0 72 55
282 79 301 18 14 41 62 35 72 -4 6 -3 8 3 5 6 -4 19 3 29 14 12 14 28 19 51
17 17 -1 35 1 39 5 10 10 16 9 9 -3z m92 4 c-3 -3 -12 -4 -19 -1 -8 3 -5 6 6
6 11 1 17 -2 13 -5z m150 -20 c-3 -3 -12 -4 -19 -1 -8 3 -5 6 6 6 11 1 17 -2
13 -5z m-5676 -57 c-10 -9 -11 -8 -5 6 3 10 9 15 12 12 3 -3 0 -11 -7 -18z
m2969 -1 c0 -2 -7 -7 -16 -10 -8 -3 -12 -2 -9 4 6 10 25 14 25 6z m2755 -16
c3 -6 -1 -7 -9 -4 -18 7 -21 14 -7 14 6 0 13 -4 16 -10z m-5745 -44 c0 -2 -8
-10 -17 -17 -16 -13 -17 -12 -4 4 13 16 21 21 21 13z m5919 -80 c-3 -3 -11 5
-18 17 -13 21 -12 21 5 5 10 -10 16 -20 13 -22z m78 -98 c-3 -8 -6 -5 -6 6 -1
11 2 17 5 13 3 -3 4 -12 1 -19z m-6235 -50 c-13 -13 -24 5 -16 27 7 16 8 16
17 0 6 -11 6 -20 -1 -27z m7080 30 c-16 -16 -15 -31 1 -22 6 4 8 3 4 -1 -12
-14 -38 -15 -30 -2 11 21 25 37 31 37 3 0 1 -5 -6 -12z m-7112 -68 c0 -5 -5
-10 -11 -10 -5 0 -7 5 -4 10 3 6 8 10 11 10 2 0 4 -4 4 -10z m2550 6 c0 -2 -7
-7 -16 -10 -8 -3 -12 -2 -9 4 6 10 25 14 25 6z m-2499 -33 c-12 -20 -14 -14
-5 12 4 9 9 14 11 11 3 -2 0 -13 -6 -23z m6296 -25 c-3 -8 -6 -5 -6 6 -1 11 2
17 5 13 3 -3 4 -12 1 -19z m807 -64 c3 -8 2 -12 -4 -9 -6 3 -10 10 -10 16 0
14 7 11 14 -7z m-4854 -79 c0 -8 -4 -15 -10 -15 -5 0 -7 7 -4 15 4 8 8 15 10
15 2 0 4 -7 4 -15z m4017 -37 c-3 -8 -6 -5 -6 6 -1 11 2 17 5 13 3 -3 4 -12 1
-19z m-6511 -56 c-17 -16 -18 -16 -5 5 7 12 15 20 18 17 3 -2 -3 -12 -13 -22z
m-36 -62 c-6 -11 -13 -20 -16 -20 -2 0 0 9 6 20 6 11 13 20 16 20 2 0 0 -9 -6
-20z m-10 -224 c0 -12 -5 -7 -19 24 -11 24 -11 24 3 6 9 -11 16 -24 16 -30z
m6377 -38 c-3 -8 -6 -5 -6 6 -1 11 2 17 5 13 3 -3 4 -12 1 -19z m30 -10 c2
-17 0 -19 -7 -8 -5 8 -6 18 -4 22 8 12 10 10 11 -14z m-4890 -134 c-3 -3 -12
-4 -19 -1 -8 3 -5 6 6 6 11 1 17 -2 13 -5z m386 -43 c38 -7 76 -16 85 -21 56
-29 115 -50 125 -44 7 4 9 4 5 -1 -4 -4 5 -14 19 -22 18 -9 29 -11 31 -4 2 6
8 8 14 5 7 -4 6 -9 -1 -13 -8 -5 -4 -14 10 -27 21 -17 22 -18 16 -1 -4 11 -3
16 3 12 6 -3 10 -12 10 -19 0 -7 12 -23 28 -37 l27 -24 -23 26 c-17 20 -20 29
-11 34 7 5 10 4 6 -2 -3 -5 30 -47 75 -94 44 -46 77 -78 73 -70 -5 9 -4 12 3
7 6 -4 8 -14 5 -23 -5 -13 -2 -15 11 -10 14 5 17 3 12 -8 -3 -10 0 -15 11 -15
9 0 14 -3 10 -6 -8 -9 44 -64 55 -58 5 3 7 13 3 23 -5 12 -4 13 6 4 10 -10 9
-15 0 -27 -14 -16 -6 -40 10 -30 5 3 8 1 7 -4 -3 -9 18 -41 70 -105 18 -22 40
-53 48 -69 16 -31 26 -37 18 -10 -5 13 -4 14 4 3 6 -8 8 -20 5 -28 -3 -7 -1
-13 4 -13 5 0 17 -16 26 -36 11 -21 22 -32 29 -28 7 4 8 3 4 -4 -4 -7 -2 -12
3 -12 6 0 10 -3 9 -7 -2 -5 12 -29 30 -55 17 -26 32 -49 32 -52 0 -8 72 -126
77 -126 2 0 2 4 -1 8 -3 5 0 9 7 9 7 0 13 -8 13 -18 0 -10 -4 -15 -9 -12 -4 2
6 -18 24 -47 19 -32 37 -49 45 -46 7 3 16 1 19 -5 4 -5 3 -8 -2 -7 -4 2 -10 0
-13 -4 -8 -10 69 -88 87 -88 9 0 14 -3 10 -6 -6 -6 29 -38 73 -66 35 -21 87
-32 95 -19 3 6 12 11 18 11 7 0 6 -4 -3 -10 -23 -15 5 -12 45 4 19 8 35 18 35
21 0 3 -4 3 -10 0 -16 -10 -11 1 7 16 11 10 14 10 9 2 -4 -7 -3 -13 3 -13 6 0
20 18 31 40 22 44 25 54 10 45 -6 -4 -5 4 1 19 13 28 24 29 51 3 10 -10 24
-15 30 -11 6 4 8 3 5 -2 -7 -12 159 -108 185 -108 10 0 18 -4 18 -8 0 -4 7 -4
17 -1 11 4 14 3 9 -5 -6 -10 7 -17 17 -9 2 1 11 -4 19 -11 9 -7 24 -10 34 -6
13 4 15 3 6 -3 -9 -7 -1 -13 30 -23 24 -7 50 -14 58 -14 9 -1 21 -6 28 -10 7
-4 20 -5 28 -2 10 4 13 2 8 -6 -5 -8 -2 -9 10 -5 10 4 25 3 34 -2 9 -5 35 -11
57 -14 98 -14 126 -20 118 -28 -18 -17 -301 -81 -351 -80 -19 1 -39 -2 -45 -6
-24 -15 -324 0 -442 22 -44 8 -88 12 -99 9 -10 -4 -16 -2 -13 3 4 6 -19 15
-51 22 -86 18 -247 69 -340 107 -46 19 -88 31 -94 28 -6 -4 -8 -3 -5 3 8 13
-78 47 -94 37 -8 -4 -9 -3 -5 4 8 14 -30 35 -47 26 -6 -4 -8 -3 -4 1 10 11
-103 66 -116 58 -6 -3 -7 -2 -4 4 4 6 -9 19 -28 29 -27 14 -39 16 -53 8 -36
-23 -25 -47 39 -87 33 -21 58 -34 54 -28 -3 7 0 8 9 5 9 -3 14 -10 11 -14 -7
-11 24 -22 38 -13 7 3 9 3 5 -2 -14 -15 254 -137 280 -128 10 4 14 2 9 -2 -10
-12 50 -36 70 -28 10 4 14 2 10 -4 -8 -13 167 -68 189 -59 8 3 13 2 10 -3 -7
-11 128 -43 148 -35 9 3 16 2 16 -4 0 -32 484 -50 640 -23 120 20 270 63 263
74 -3 6 -2 7 4 4 16 -10 84 13 77 25 -4 6 -3 8 3 5 12 -8 103 23 103 35 0 4 7
8 16 8 8 0 42 14 75 32 42 22 55 34 46 41 -8 6 -6 7 6 3 21 -7 61 17 49 29 -4
5 -2 5 4 2 10 -6 84 37 84 49 0 3 -4 2 -10 -1 -16 -10 -11 1 7 16 14 12 16 12
9 0 -6 -9 -5 -12 5 -9 8 3 13 11 11 17 -1 7 2 10 8 6 14 -9 171 125 163 139
-3 6 -3 8 2 4 9 -9 110 93 166 169 39 52 48 70 29 58 -16 -10 -11 1 7 16 11
10 14 10 9 2 -4 -7 -4 -13 1 -12 9 0 102 110 120 142 7 12 13 18 13 14 0 -4
23 15 51 43 31 31 47 55 43 63 -4 6 -4 9 1 5 10 -10 37 11 29 23 -3 5 3 6 12
2 14 -5 16 -3 11 11 -4 10 -3 15 4 11 11 -7 106 75 101 88 -1 5 2 6 7 2 12 -7
107 64 103 77 -1 5 3 6 9 3 6 -4 23 2 38 13 15 11 52 32 82 48 30 15 63 34 73
43 11 9 16 10 12 4 -5 -9 -2 -11 8 -7 9 3 13 11 9 17 -3 6 -1 7 5 3 6 -4 23
-4 37 0 22 5 24 9 13 22 -11 13 -10 14 9 4 26 -14 56 -17 35 -3 -8 5 48 8 130
8 108 0 148 -3 165 -14 12 -8 28 -11 34 -7 7 4 9 3 6 -3 -4 -6 5 -15 18 -21
35 -16 24 -33 -50 -71 -36 -19 -62 -39 -58 -44 4 -6 0 -8 -10 -4 -9 3 -18 -1
-21 -10 -4 -9 -9 -13 -12 -10 -9 9 -145 -93 -139 -104 4 -5 0 -6 -7 -4 -13 5
-333 -293 -325 -301 2 -2 -18 -28 -45 -57 -26 -28 -61 -70 -76 -92 -15 -22
-32 -44 -38 -50 -16 -15 -66 -85 -60 -85 2 0 -9 -14 -25 -31 -16 -18 -28 -34
-25 -36 2 -2 -9 -18 -25 -35 -15 -17 -27 -34 -26 -37 5 -15 -246 -266 -265
-266 -8 0 -85 -57 -119 -87 -10 -10 -22 -18 -26 -19 -19 -2 -61 -34 -56 -42 3
-4 -1 -7 -8 -5 -8 1 -39 -12 -69 -29 -127 -72 -397 -177 -515 -199 -19 -3 -33
-10 -30 -15 3 -4 -5 -7 -17 -6 -37 3 -178 -25 -178 -35 0 -5 -5 -6 -11 -2 -6
3 -45 1 -87 -6 -42 -6 -144 -15 -227 -20 -82 -5 -154 -10 -160 -10 -29 -3
-421 22 -490 31 -44 6 -98 12 -120 14 -22 2 -101 16 -175 31 -74 15 -147 28
-162 28 -14 1 -24 4 -22 7 4 7 -66 21 -108 22 -15 0 -25 4 -21 10 3 5 0 7 -8
5 -8 -3 -22 -1 -33 4 -38 20 -159 49 -168 40 -5 -5 25 -18 74 -31 46 -12 97
-26 114 -31 16 -6 50 -14 75 -19 24 -5 72 -17 106 -25 34 -9 70 -13 79 -9 13
5 15 3 9 -7 -6 -10 -1 -12 23 -7 17 3 32 2 34 -3 2 -6 26 -12 53 -14 28 -2 57
-6 65 -9 24 -9 253 -37 385 -46 134 -9 414 -13 426 -5 4 2 55 7 114 10 58 2
116 9 129 14 13 5 26 6 29 4 12 -13 399 74 391 88 -3 4 2 5 10 2 9 -3 16 -2
16 2 0 5 13 9 28 10 15 0 45 9 67 18 101 44 139 60 183 76 17 7 32 16 32 21 0
5 6 6 13 3 8 -3 20 2 27 11 7 8 17 15 23 15 21 0 136 74 130 83 -4 6 0 8 9 4
18 -7 61 20 53 34 -3 5 0 6 8 3 8 -3 21 1 28 8 8 7 27 21 42 31 15 10 25 23
21 29 -4 6 -1 9 6 6 25 -8 263 225 318 311 9 14 40 58 68 96 28 39 49 77 46
85 -3 8 -1 12 3 8 10 -10 76 64 70 79 -2 7 -1 12 3 11 4 -1 41 33 82 76 41 44
68 76 60 71 -8 -4 11 16 43 45 31 28 57 57 57 64 0 6 22 27 48 46 26 19 49 38
52 41 14 17 173 139 182 139 5 0 6 5 3 10 -3 6 -1 11 4 11 21 3 26 5 51 20 14
9 44 27 68 41 23 14 40 27 37 30 -3 3 6 6 20 6 30 0 31 -8 6 -88 -11 -34 -18
-67 -15 -74 2 -6 -3 -20 -11 -31 -15 -19 -16 -19 -5 3 7 13 9 26 6 29 -3 3
-11 -7 -18 -23 -7 -16 -23 -46 -36 -67 -12 -21 -20 -43 -16 -50 4 -7 3 -9 -1
-4 -11 10 -58 -82 -51 -100 3 -8 2 -12 -2 -9 -11 7 -74 -142 -66 -156 4 -6 3
-8 -3 -5 -12 7 -56 -140 -47 -155 4 -6 3 -8 -3 -5 -11 7 -75 -238 -77 -293 -1
-15 -5 -26 -10 -22 -5 3 -7 -5 -4 -16 4 -14 2 -20 -4 -16 -6 4 -8 -2 -3 -16 5
-15 4 -20 -4 -16 -14 9 -14 0 1 -27 10 -20 10 -21 -5 -8 -15 12 -17 11 -17 -3
0 -9 -12 -39 -26 -67 -20 -40 -23 -54 -13 -65 9 -12 9 -13 -2 -9 -9 3 -27 -19
-54 -67 -22 -40 -39 -79 -39 -85 1 -7 -2 -10 -7 -8 -4 3 -15 -10 -25 -30 -9
-19 -20 -35 -24 -35 -9 0 -65 -83 -62 -92 1 -5 -2 -7 -6 -5 -12 4 -84 -72 -77
-83 3 -5 -1 -7 -9 -4 -9 3 -20 -3 -28 -16 -15 -25 -161 -134 -235 -175 -36
-20 -48 -32 -40 -38 8 -6 6 -7 -5 -3 -10 3 -44 -8 -75 -23 -73 -36 -227 -86
-313 -102 -36 -6 -72 -18 -81 -25 -8 -8 -20 -14 -25 -14 -5 0 -2 5 6 11 11 7
2 8 -30 3 -55 -9 -462 -11 -448 -3 13 8 -176 21 -209 13 -19 -4 -24 -3 -15 4
9 6 -45 12 -155 16 -277 11 -512 27 -613 41 -60 9 -100 10 -111 4 -22 -11 -39
-12 -20 0 18 12 -40 25 -69 16 -11 -3 -20 -2 -20 2 0 5 -35 15 -77 22 -88 15
-343 73 -415 95 -27 8 -48 12 -48 9 0 -3 -6 0 -14 6 -7 6 -22 8 -31 4 -14 -5
-16 -3 -10 7 6 10 4 12 -8 7 -9 -3 -17 -2 -19 2 -4 10 -148 61 -171 61 -9 0
-17 5 -17 11 0 6 -7 8 -16 5 -9 -3 -12 -2 -9 5 4 6 1 9 -6 8 -8 -2 -29 5 -47
14 -18 10 -37 15 -43 12 -5 -4 -8 -1 -7 7 2 7 -5 12 -14 12 -10 -1 -18 3 -18
8 0 6 -7 7 -16 4 -9 -3 -12 -2 -9 4 4 6 -7 13 -24 16 -17 4 -31 11 -31 16 0 5
-10 6 -22 3 -14 -4 -18 -3 -11 2 8 5 -20 28 -82 65 -51 32 -114 73 -139 93
-25 19 -46 32 -46 28 0 -3 -11 6 -24 22 -17 20 -26 24 -31 15 -5 -8 -4 -11 3
-6 12 7 10 -20 -3 -31 -4 -4 -5 -2 -1 5 4 7 1 15 -9 18 -13 6 -14 8 -3 15 10
6 4 17 -26 46 -36 36 -39 37 -52 18 -8 -10 -14 -14 -14 -9 0 6 5 15 12 22 9 9
4 20 -22 47 -28 29 -36 33 -49 22 -14 -10 -14 -10 -3 5 12 14 11 19 -7 30 -12
7 -21 18 -21 25 0 17 -10 16 -30 -2 -15 -14 -18 -14 -31 2 -11 15 -11 16 1 6
10 -9 17 -10 27 -2 20 17 16 34 -4 18 -16 -13 -17 -12 -5 3 11 14 10 21 -5 45
l-18 27 48 -26 c101 -56 267 -127 284 -121 10 4 14 2 10 -4 -6 -10 99 -58 146
-67 6 -2 25 -8 40 -14 16 -7 38 -12 50 -12 23 1 -312 140 -348 145 -11 1 -24
3 -28 4 -5 0 -5 6 -1 12 4 7 1 10 -7 7 -8 -3 -34 8 -58 24 -25 15 -51 28 -58
28 -7 0 -13 4 -13 9 0 5 -22 18 -50 30 -27 12 -50 26 -50 32 0 6 -5 7 -10 4
-6 -4 -10 -3 -9 2 3 19 -2 34 -10 29 -5 -3 -8 0 -8 7 1 6 -20 55 -46 108 -26
53 -47 103 -47 110 0 11 -2 11 -10 -1 -8 -11 -9 -7 -4 14 5 20 4 27 -4 22 -8
-5 -10 -1 -6 9 4 8 1 22 -6 30 -7 8 -10 15 -7 15 3 0 -3 32 -13 71 -15 59 -18
100 -14 252 4 205 7 247 15 242 9 -6 30 85 23 97 -4 7 -2 8 4 4 7 -4 12 -1 12
8 0 9 14 41 30 71 17 31 27 61 24 67 -4 6 -2 8 4 4 16 -10 27 15 11 26 -11 8
-10 9 3 4 19 -6 43 25 30 39 -4 5 -2 5 4 2 14 -8 37 17 26 27 -4 4 -2 6 3 4
13 -4 55 38 47 48 -4 4 -1 4 6 0 16 -9 44 12 35 27 -3 6 -1 7 6 3 6 -4 32 4
57 18 26 14 53 26 61 26 8 0 11 5 7 12 -5 8 0 9 15 5 12 -3 35 -1 51 5 37 12
240 26 260 17 8 -3 46 -12 83 -18z m247 -25 c0 -2 -7 -7 -16 -10 -8 -3 -12 -2
-9 4 6 10 25 14 25 6z m4145 -26 c-3 -5 -12 -10 -18 -10 -7 0 -6 4 3 10 19 12
23 12 15 0z m-3510 -20 c3 -5 1 -10 -4 -10 -6 0 -11 5 -11 10 0 6 2 10 4 10 3
0 8 -4 11 -10z m53 -74 c-7 -8 -15 -12 -17 -11 -5 6 10 25 20 25 5 0 4 -6 -3
-14z m3009 -32 c-3 -3 -12 -4 -19 -1 -8 3 -5 6 6 6 11 1 17 -2 13 -5z m50 -10
c-3 -3 -12 -4 -19 -1 -8 3 -5 6 6 6 11 1 17 -2 13 -5z m-4757 -84 c6 -11 8
-20 6 -20 -3 0 -10 9 -16 20 -6 11 -8 20 -6 20 3 0 10 -9 16 -20z m-1393 -102
c-3 -8 -6 -5 -6 6 -1 11 2 17 5 13 3 -3 4 -12 1 -19z m5639 -54 c1 -9 0 -13
-4 -10 -3 4 -7 14 -8 22 -1 9 0 13 4 10 3 -4 7 -14 8 -22z m-2772 -54 c-6 -6
-10 -3 -10 10 0 13 4 16 10 10 7 -7 7 -13 0 -20z m2722 8 c-10 -6 -22 -6 -26
-2 -5 5 3 10 18 11 22 1 24 0 8 -9z m24 -12 c0 -2 -8 -10 -17 -17 -16 -13 -17
-12 -4 4 13 16 21 21 21 13z m-2734 -38 c-9 -12 -16 -19 -16 -15 0 11 24 47
28 42 2 -2 -3 -14 -12 -27z m2674 8 c0 -2 -7 -7 -16 -10 -8 -3 -12 -2 -9 4 6
10 25 14 25 6z m2617 -78 c-3 -8 -6 -5 -6 6 -1 11 2 17 5 13 3 -3 4 -12 1 -19z
m-6850 -10 c-3 -8 -6 -5 -6 6 -1 11 2 17 5 13 3 -3 4 -12 1 -19z m2030 3 c0
-11 -7 -17 -14 -14 -9 4 -9 8 0 19 16 17 16 17 14 -5z m2080 -28 c3 -7 -4 -16
-15 -22 -16 -9 -19 -7 -17 12 1 12 3 24 4 25 2 7 25 -5 28 -15z m966 2 c-3 -9
-8 -14 -10 -11 -3 3 -2 9 2 15 9 16 15 13 8 -4z m-2960 -42 c-5 -12 -3 -14 8
-8 8 5 11 4 6 0 -4 -5 -14 -10 -22 -11 -12 -2 -12 2 -5 17 13 23 22 25 13 2z
m1913 -18 c-1 -8 -5 -17 -8 -21 -5 -4 -4 16 1 34 3 9 9 -1 7 -13z m-2272 -73
c3 -5 -1 -9 -9 -9 -8 0 -12 4 -9 9 3 4 7 8 9 8 2 0 6 -4 9 -8z m2260 -14 c-10
-13 -19 -24 -20 -26 -1 -1 -7 4 -13 12 -9 11 -9 16 0 22 8 4 9 3 5 -4 -11 -17
9 -15 24 3 7 8 15 15 18 15 3 0 -3 -10 -14 -22z m-2235 -101 c-8 -13 -14 -16
-21 -9 -13 13 -4 29 16 29 12 0 13 -5 5 -20z m-1812 -39 c-3 -8 -6 -5 -6 6 -1
11 2 17 5 13 3 -3 4 -12 1 -19z m3821 -112 c-7 -8 -15 -12 -17 -11 -5 6 10 25
20 25 5 0 4 -6 -3 -14z m-240 -190 c-7 -8 -15 -12 -17 -11 -5 6 10 25 20 25 5
0 4 -6 -3 -14z m-2183 -24 c-3 -3 -11 0 -18 7 -9 10 -8 11 6 5 10 -3 15 -9 12
-12z m2140 8 c3 -5 2 -10 -4 -10 -5 0 -13 5 -16 10 -3 6 -2 10 4 10 5 0 13 -4
16 -10z m-3398 -32 c-3 -8 -6 -5 -6 6 -1 11 2 17 5 13 3 -3 4 -12 1 -19z
m3398 -8 c3 -6 -1 -7 -9 -4 -18 7 -21 14 -7 14 6 0 13 -4 16 -10z m-1995 -40
c0 -5 -5 -10 -11 -10 -5 0 -7 5 -4 10 3 6 8 10 11 10 2 0 4 -4 4 -10z m50 -4
c0 -2 -8 -10 -17 -17 -16 -13 -17 -12 -4 4 13 16 21 21 21 13z m-3022 -31 c-3
-3 -9 2 -12 12 -6 14 -5 15 5 6 7 -7 10 -15 7 -18z m3058 -11 c18 -14 18 -14
-6 -3 -31 14 -36 19 -24 19 6 0 19 -7 30 -16z m184 -23 c0 -6 -5 -13 -12 -17
-6 -4 -8 -3 -4 4 3 5 0 13 -6 15 -8 3 -6 6 5 6 9 1 17 -3 17 -8z m-1623 -63
c-3 -8 -6 -5 -6 6 -1 11 2 17 5 13 3 -3 4 -12 1 -19z m1698 2 c-3 -5 -1 -10 6
-10 7 0 10 -3 6 -6 -9 -9 -28 6 -22 17 4 5 8 9 11 9 3 0 2 -4 -1 -10z m1120
-30 c-3 -5 -12 -10 -18 -10 -7 0 -6 4 3 10 19 12 23 12 15 0z m-868 -56 c-3
-3 -12 -4 -19 -1 -8 3 -5 6 6 6 11 1 17 -2 13 -5z m380 -30 c-3 -3 -12 -4 -19
-1 -8 3 -5 6 6 6 11 1 17 -2 13 -5z m-2176 -67 c-10 -9 -11 -8 -5 6 3 10 9 15
12 12 3 -3 0 -11 -7 -18z m4370 -60 c-10 -9 -11 -8 -5 6 3 10 9 15 12 12 3 -3
0 -11 -7 -18z m2276 -39 c-3 -8 -6 -5 -6 6 -1 11 2 17 5 13 3 -3 4 -12 1 -19z
m-2311 -68 c0 -9 -5 -17 -11 -17 -6 0 -11 8 -11 17 0 9 5 17 11 17 6 0 11 -8
11 -17z m-3976 -90 c8 -5 11 -10 5 -10 -5 0 -17 5 -25 10 -8 5 -10 10 -5 10 6
0 17 -5 25 -10z m3923 -25 c-3 -9 -8 -14 -10 -11 -3 3 -2 9 2 15 9 16 15 13 8
-4z m-3823 -49 c0 -1 -9 -2 -20 -2 -10 0 -17 2 -15 5 3 2 -1 11 -8 19 -9 11
-4 11 16 -2 15 -10 27 -19 27 -20z m460 -201 c14 -8 21 -14 15 -14 -5 0 -21 6
-35 14 -14 8 -20 14 -15 14 6 0 21 -6 35 -14z m-83 -1 c-3 -3 -12 -4 -19 -1
-8 3 -5 6 6 6 11 1 17 -2 13 -5z m3080 -38 c0 -8 -6 -12 -15 -9 -11 5 -11 7 0
14 7 5 13 9 14 9 0 0 1 -6 1 -14z m-2840 -62 c-3 -3 -12 -4 -19 -1 -8 3 -5 6
6 6 11 1 17 -2 13 -5z m2623 -54 c-8 -5 -19 -10 -25 -10 -5 0 -3 5 5 10 8 5
20 10 25 10 6 0 3 -5 -5 -10z m-73 -36 c-3 -3 -12 -4 -19 -1 -8 3 -5 6 6 6 11
1 17 -2 13 -5z m98 -4 c-3 -5 -12 -10 -18 -10 -7 0 -6 4 3 10 19 12 23 12 15
0z m-2058 -6 c-3 -3 -12 -4 -19 -1 -8 3 -5 6 6 6 11 1 17 -2 13 -5z m-3360
-46 c-3 -8 -6 -5 -6 6 -1 11 2 17 5 13 3 -3 4 -12 1 -19z m3610 -14 c-3 -3
-12 -4 -19 -1 -8 3 -5 6 6 6 11 1 17 -2 13 -5z m523 -8 c0 -2 -7 -7 -16 -10
-8 -3 -12 -2 -9 4 6 10 25 14 25 6z m293 -3 c-7 -2 -19 -2 -25 0 -7 3 -2 5 12
5 14 0 19 -2 13 -5z m704 1 c-3 -3 -12 -4 -19 -1 -8 3 -5 6 6 6 11 1 17 -2 13
-5z m0 -20 c-3 -3 -12 -4 -19 -1 -8 3 -5 6 6 6 11 1 17 -2 13 -5z m-976 -24
l39 0 0 -570 0 -569 -21 -12 c-29 -15 -77 -14 -117 3 l-33 13 1 545 c0 300 0
558 0 574 0 28 0 29 46 22 26 -3 64 -6 85 -6z m369 -10 c11 -8 7 -9 -15 -4
-37 8 -45 14 -19 14 10 0 26 -5 34 -10z m405 -8 c-3 -3 -11 0 -18 7 -9 10 -8
11 6 5 10 -3 15 -9 12 -12z m-958 -14 c-3 -8 -6 -5 -6 6 -1 11 2 17 5 13 3 -3
4 -12 1 -19z m4210 -150 c-3 -8 -6 -5 -6 6 -1 11 2 17 5 13 3 -3 4 -12 1 -19z
m-8176 -41 c-10 -9 -11 -8 -5 6 3 10 9 15 12 12 3 -3 0 -11 -7 -18z m8096
-239 c-3 -8 -6 -5 -6 6 -1 11 2 17 5 13 3 -3 4 -12 1 -19z m-4170 -304 c-3 -3
-12 -4 -19 -1 -8 3 -5 6 6 6 11 1 17 -2 13 -5z m15 -195 c-2 -107 1 -159 8
-159 7 0 6 -7 -2 -19 -15 -25 0 -44 56 -73 112 -57 266 -7 266 85 0 16 7 26
20 30 11 3 20 1 20 -3 0 -5 19 -11 43 -15 117 -19 299 -59 357 -79 36 -13 71
-21 79 -18 8 3 11 0 7 -6 -7 -12 30 -28 54 -23 8 2 12 -1 7 -5 -9 -10 42 -44
66 -44 10 0 16 -4 12 -10 -3 -5 9 -17 26 -26 50 -25 83 -60 75 -79 -3 -9 -9
-14 -14 -12 -4 3 -18 0 -31 -7 -42 -23 -4 -28 39 -6 36 18 40 23 28 37 -7 9
-11 17 -8 18 3 1 -12 16 -32 34 -22 19 -42 29 -49 25 -7 -4 -9 -3 -5 4 6 11
-31 38 -46 34 -5 -1 -8 3 -8 9 0 5 -4 7 -10 4 -5 -3 -10 -1 -10 4 0 24 -269
129 -292 115 -5 -3 -14 -1 -21 4 -17 14 -124 35 -137 27 -5 -3 -10 -2 -10 2 0
11 -124 34 -144 27 -12 -5 -14 15 -13 142 l2 148 65 -4 c36 -3 88 -5 117 -5
28 0 47 -3 41 -6 -8 -5 38 -13 147 -25 17 -2 89 -19 160 -39 72 -20 138 -37
148 -38 9 -1 17 -4 17 -8 0 -11 61 -30 73 -22 5 3 7 1 4 -4 -7 -11 22 -28 31
-18 3 3 -1 5 -8 5 -7 0 -11 2 -8 5 9 10 38 -7 31 -18 -4 -7 0 -8 13 -3 10 4
15 4 11 -1 -4 -4 5 -14 22 -23 16 -8 45 -23 65 -34 38 -19 42 -33 38 -116 -3
-39 -41 -150 -51 -147 -3 1 -22 -14 -41 -32 -19 -18 -48 -39 -65 -47 -16 -7
-28 -14 -25 -14 29 -7 40 -7 40 1 0 5 7 9 15 9 8 0 24 13 36 30 12 16 25 27
29 25 10 -6 71 90 74 118 1 15 6 30 9 34 4 3 8 29 8 57 1 28 3 43 6 34 2 -10
9 -19 14 -19 5 -1 13 -2 18 -3 5 0 13 -5 18 -10 5 -6 2 -6 -7 -1 -10 6 -8 1 4
-13 10 -12 23 -19 28 -16 4 3 7 0 6 -7 -2 -7 2 -13 9 -14 6 0 15 -4 20 -9 5
-5 3 -6 -4 -2 -18 10 -17 5 15 -55 37 -73 36 -151 -4 -234 -15 -33 -28 -67
-26 -75 1 -11 0 -11 -4 -2 -5 10 -14 7 -34 -13 -16 -15 -27 -32 -26 -39 2 -6
1 -8 -1 -4 -3 4 -15 0 -28 -8 -26 -17 -45 -12 -45 12 0 8 -4 14 -10 14 -5 0
-10 6 -10 14 0 14 -86 132 -113 154 -8 7 -18 9 -20 5 -3 -5 17 -32 45 -61 27
-29 46 -52 41 -52 -4 0 0 -5 10 -11 9 -6 15 -14 12 -20 -4 -5 -1 -9 6 -9 7 0
9 -3 6 -6 -4 -4 3 -19 14 -35 l19 -28 -22 -21 c-13 -12 -44 -31 -70 -42 -26
-11 -45 -24 -42 -29 3 -5 -3 -6 -12 -2 -11 4 -15 3 -10 -5 4 -6 -1 -11 -11
-11 -26 0 -154 -47 -147 -54 3 -3 -4 -3 -17 0 -17 5 -20 3 -14 -7 5 -9 4 -11
-4 -6 -10 7 -55 -3 -101 -21 -8 -4 -24 -8 -35 -9 -11 -2 -54 -10 -95 -19 -155
-33 -381 -47 -625 -40 -126 4 -251 8 -277 9 -25 0 -44 4 -41 9 2 4 -7 7 -20 7
-13 0 -66 9 -118 20 -51 10 -95 17 -98 15 -2 -3 -9 -1 -15 4 -21 16 -154 51
-173 45 -15 -5 -15 -4 -3 5 13 9 12 11 -5 12 -11 1 -25 3 -31 3 -6 1 -18 6
-25 12 -8 6 -30 17 -49 24 -19 8 -64 31 -99 52 -67 40 -76 44 -66 28 3 -6 -1
-7 -10 -3 -11 4 -13 8 -5 13 7 4 2 13 -15 24 -55 36 -105 89 -136 144 -29 50
-32 65 -31 122 3 82 5 94 21 114 7 8 9 21 5 27 -5 8 -3 9 6 4 10 -6 12 -4 7 8
-3 9 -3 16 1 14 13 -3 72 69 64 78 -4 5 -2 5 4 2 13 -8 80 40 76 54 -1 6 2 7
8 4 6 -4 20 1 30 10 20 18 39 3 22 -18 -19 -22 -8 -157 17 -212 32 -72 119
-152 221 -202 93 -46 215 -87 230 -78 6 3 10 1 10 -6 0 -8 10 -9 30 -5 22 4
29 2 24 -6 -5 -7 1 -9 19 -6 15 3 28 1 29 -3 6 -16 274 -31 448 -25 177 7 475
32 492 42 5 3 31 8 59 10 28 3 61 9 75 14 14 6 37 10 50 10 14 0 68 14 120 31
71 24 92 35 83 43 -8 8 -13 8 -16 -1 -2 -7 -11 -9 -20 -6 -10 4 -14 2 -10 -4
4 -6 -7 -10 -24 -10 -17 0 -34 -4 -37 -10 -4 -5 -14 -10 -22 -10 -8 0 -46 -7
-85 -16 -38 -8 -96 -19 -127 -22 -32 -4 -58 -11 -58 -15 0 -4 -17 -8 -37 -7
-21 1 -111 -5 -199 -12 -220 -18 -629 -10 -734 14 -41 10 -84 18 -95 19 -11 1
-22 4 -25 7 -6 8 -122 43 -132 41 -5 -1 -8 3 -8 9 0 5 -4 7 -10 4 -5 -3 -10
-1 -10 5 0 6 -4 8 -10 5 -5 -3 -10 -3 -10 2 0 4 -20 19 -45 32 -25 13 -65 46
-90 72 -25 27 -50 49 -56 49 -6 0 -7 4 -4 10 3 5 -2 24 -11 42 -31 58 -24 248
9 248 4 0 5 4 2 10 -3 6 1 7 9 4 9 -3 16 -1 16 5 0 7 6 11 13 10 12 -2 21 1
102 36 129 55 508 135 643 135 23 0 42 5 42 10 0 7 5 6 13 -1 9 -8 11 -53 9
-170z m-265 165 c-3 -3 -12 -4 -19 -1 -8 3 -5 6 6 6 11 1 17 -2 13 -5z m-110
-10 c-3 -3 -12 -4 -19 -1 -8 3 -5 6 6 6 11 1 17 -2 13 -5z m10 -20 c-3 -3 -12
-4 -19 -1 -8 3 -5 6 6 6 11 1 17 -2 13 -5z m-140 -10 c-3 -3 -12 -4 -19 -1 -8
3 -5 6 6 6 11 1 17 -2 13 -5z m-377 -154 c0 -5 -4 -10 -10 -10 -5 0 -10 5 -10
10 0 6 5 10 10 10 6 0 10 -4 10 -10z m2302 -107 c-6 -2 -9 -10 -6 -15 4 -7 2
-8 -5 -4 -13 9 -5 26 12 25 9 0 8 -2 -1 -6z m-1140 -87 c7 4 8 3 4 -4 -10 -16
-18 -15 -42 4 -18 14 -18 15 4 4 12 -6 28 -8 34 -4z m3638 -2 c0 -8 -19 -13
-24 -6 -3 5 1 9 9 9 8 0 15 -2 15 -3z m-3745 -24 c-3 -5 -12 -10 -18 -10 -7 0
-6 4 3 10 19 12 23 12 15 0z m72 4 c-3 -3 -12 -4 -19 -1 -8 3 -5 6 6 6 11 1
17 -2 13 -5z m-40 -20 c-3 -3 -12 -4 -19 -1 -8 3 -5 6 6 6 11 1 17 -2 13 -5z
m3530 0 c-3 -3 -12 -4 -19 -1 -8 3 -5 6 6 6 11 1 17 -2 13 -5z m-4949 -72 c-5
-26 -6 -58 -2 -72 4 -14 8 -37 10 -51 5 -36 53 -129 70 -136 8 -3 12 -9 9 -13
-3 -4 3 -14 12 -21 12 -10 14 -10 9 -1 -4 6 -5 12 -1 12 3 0 10 -12 15 -26 7
-17 16 -24 25 -21 8 4 12 1 9 -6 -6 -16 52 -50 69 -41 9 6 9 4 -1 -8 -10 -13
-10 -17 4 -22 24 -9 36 -7 28 6 -4 7 -3 8 4 4 6 -4 9 -12 6 -19 -5 -14 103
-73 125 -69 7 2 10 -1 7 -6 -3 -6 1 -13 10 -16 10 -4 13 -2 8 7 -4 6 2 4 14
-7 11 -10 32 -19 45 -20 14 0 23 -4 20 -8 -2 -5 4 -8 14 -8 11 0 23 -4 29 -9
9 -10 53 -22 86 -24 9 -1 14 -6 11 -11 -4 -5 3 -7 15 -4 12 3 22 2 24 -2 4
-11 239 -60 311 -65 33 -2 61 -6 65 -9 3 -3 26 -6 51 -5 35 0 41 2 26 9 -15 7
-16 9 -4 9 9 1 22 -6 29 -14 10 -12 49 -15 230 -15 119 0 219 3 222 6 3 3 35
7 70 9 94 4 188 17 184 24 -2 3 12 7 32 8 21 1 47 3 60 4 12 1 22 6 22 11 0 6
7 7 16 4 16 -6 102 11 119 25 6 4 27 10 48 14 20 4 40 11 42 16 3 4 12 6 20 2
8 -3 15 0 15 7 0 6 4 9 9 5 6 -3 42 9 81 26 51 23 67 35 58 42 -9 6 -7 7 6 3
23 -8 58 2 51 15 -3 5 2 6 11 2 12 -4 15 -3 10 6 -4 6 -4 11 1 10 20 -3 34 4
98 51 118 87 174 156 206 253 17 52 20 78 14 123 -5 39 -10 53 -16 43 -5 -9
-9 -10 -9 -2 0 6 4 14 9 17 5 4 505 7 1110 9 1069 2 1101 1 1095 -17 -3 -10
-16 -29 -28 -43 -11 -13 -21 -28 -21 -32 0 -4 -8 -15 -17 -25 -20 -19 -24 -31
-8 -21 6 3 7 -1 4 -9 -3 -9 -11 -14 -16 -13 -6 1 -18 -10 -27 -24 -29 -47 -55
-84 -64 -90 -4 -3 -5 -14 -1 -25 4 -14 3 -15 -4 -6 -7 11 -15 5 -33 -25 -13
-21 -27 -40 -31 -41 -5 -2 -5 -9 -2 -14 4 -6 2 -8 -4 -4 -11 7 -58 -62 -54
-81 1 -6 -2 -14 -8 -18 -6 -4 -7 1 -4 12 4 10 -12 -2 -34 -27 -23 -25 -39 -51
-37 -58 3 -7 1 -11 -4 -8 -11 7 -72 -57 -75 -80 -2 -11 -7 -19 -12 -19 -17 0
-34 -16 -28 -26 3 -5 0 -8 -8 -7 -7 2 -12 -3 -10 -10 1 -8 -2 -11 -7 -8 -5 3
-14 -1 -21 -9 -11 -13 -10 -15 6 -10 10 3 6 -1 -9 -8 -16 -8 -29 -18 -30 -23
-1 -13 -21 -33 -28 -28 -4 2 -13 -4 -20 -13 -12 -14 -12 -16 0 -8 10 5 12 4 7
-3 -4 -7 -13 -12 -20 -12 -18 0 -48 -35 -39 -44 5 -4 3 -6 -2 -4 -10 3 -215
-169 -215 -180 0 -2 7 -1 16 2 9 3 12 2 9 -5 -4 -5 -14 -7 -23 -5 -11 4 -39
-14 -79 -50 -34 -30 -66 -55 -70 -55 -4 -1 -7 -5 -5 -11 1 -5 -1 -7 -6 -4 -12
7 -54 -23 -47 -35 3 -5 0 -6 -8 -4 -7 3 -21 -3 -31 -14 -17 -19 -17 -20 3 -31
12 -6 27 -8 34 -4 9 5 9 4 0 -6 -10 -11 -17 -10 -37 4 -25 16 -27 15 -75 -18
-28 -18 -48 -36 -45 -39 3 -3 0 -8 -7 -13 -8 -4 -10 -3 -5 4 4 7 4 12 1 12
-12 0 -75 -47 -70 -52 3 -2 -1 -5 -8 -5 -6 0 -57 -27 -112 -59 -55 -33 -139
-79 -187 -104 -47 -25 -84 -49 -81 -54 4 -5 1 -6 -4 -3 -6 4 -35 -4 -64 -17
-34 -15 -48 -25 -38 -29 7 -3 1 -3 -15 0 -22 5 -27 3 -21 -7 5 -9 4 -11 -3 -6
-6 4 -31 -3 -54 -16 -24 -12 -47 -23 -53 -25 -56 -14 -104 -37 -98 -46 4 -6 0
-8 -10 -4 -10 4 -30 1 -45 -5 -15 -6 -56 -21 -92 -33 -40 -14 -64 -27 -62 -35
3 -11 0 -11 -12 0 -12 9 -16 10 -16 0 0 -7 -6 -10 -14 -7 -7 3 -44 -4 -82 -15
-38 -11 -94 -26 -124 -35 -30 -8 -62 -18 -70 -21 -8 -3 -23 -4 -34 -3 -10 2
-15 -2 -12 -7 3 -6 -2 -8 -13 -5 -10 2 -38 -1 -62 -8 -24 -7 -48 -13 -54 -14
-90 -10 -135 -19 -135 -27 0 -5 -8 -7 -17 -4 -10 3 -65 -1 -123 -10 -122 -18
-746 -25 -920 -10 -58 5 -118 10 -135 11 -16 2 -37 5 -45 8 -20 7 -207 38
-217 36 -4 -1 -15 1 -23 4 -23 10 -242 60 -271 62 -14 1 -31 5 -38 9 -24 15
-194 65 -202 60 -5 -3 -9 0 -9 6 0 6 -4 9 -9 6 -5 -4 -11 -3 -13 1 -5 12 -102
43 -123 39 -11 -2 -13 -1 -5 2 8 2 -28 22 -79 43 -51 21 -97 37 -101 34 -11
-7 -41 5 -35 15 2 4 -6 12 -20 18 -21 10 -23 9 -20 -9 2 -11 0 -17 -6 -14 -5
4 -7 10 -4 15 3 4 -2 13 -10 20 -21 17 -86 49 -79 39 3 -5 -2 -6 -11 -3 -9 4
-13 9 -11 12 9 8 -107 63 -122 57 -7 -2 -11 -1 -8 4 5 8 -29 31 -184 121 -41
24 -83 50 -92 58 -9 8 -21 11 -27 8 -5 -4 -13 -1 -17 5 -4 8 -3 9 4 5 7 -4 12
-5 12 -3 0 8 -145 100 -157 100 -7 0 -11 3 -8 5 8 8 -16 32 -26 26 -5 -3 -9 0
-9 6 0 7 -7 9 -16 6 -9 -4 -13 -2 -8 5 4 7 1 10 -7 7 -8 -3 -13 -11 -11 -17 1
-7 -3 -9 -9 -6 -8 5 -6 12 4 22 14 14 10 19 -29 49 -47 36 -60 42 -48 22 4 -8
3 -10 -2 -5 -5 5 -9 12 -9 15 0 15 -46 52 -57 46 -6 -4 -8 -3 -5 3 7 11 -172
170 -186 165 -5 -1 -6 1 -3 6 3 5 -15 28 -39 52 -40 39 -46 42 -62 29 -17 -13
-17 -13 -4 4 13 16 8 24 -49 82 -42 41 -70 62 -82 60 -10 -2 -16 0 -13 6 4 5
11 7 16 4 19 -12 8 13 -16 35 -14 14 -44 48 -67 77 -22 29 -45 50 -51 46 -6
-3 -7 -1 -3 5 4 7 -7 25 -26 43 -18 18 -26 28 -18 25 8 -4 2 4 -13 18 -15 14
-24 26 -20 26 4 0 3 4 -3 8 -6 4 -25 29 -43 56 -25 36 -36 45 -43 35 -7 -12
-9 -11 -7 1 1 8 1 20 0 26 -2 16 -42 59 -52 57 -4 -2 -6 4 -2 13 3 8 -3 25
-14 37 -10 12 -25 35 -31 51 -11 25 -15 26 -30 15 -15 -13 -16 -12 -4 3 12 15
12 20 -1 32 -8 8 -16 14 -18 13 -3 -1 1 3 7 8 7 7 386 9 1106 7 l1095 -2 -9
-48z m5077 29 c-3 -6 -11 -11 -16 -11 -5 0 -4 6 3 14 14 16 24 13 13 -3z
m-2368 -23 c-3 -7 -5 -2 -5 12 0 14 2 19 5 13 2 -7 2 -19 0 -25z m2333 -12 c0
-3 -4 -8 -10 -11 -5 -3 -10 -1 -10 4 0 6 5 11 10 11 6 0 10 -2 10 -4z m-7196
-24 c3 -5 -1 -9 -9 -9 -8 0 -12 4 -9 9 3 4 7 8 9 8 2 0 6 -4 9 -8z m4923 -34
c-3 -8 -6 -5 -6 6 -1 11 2 17 5 13 3 -3 4 -12 1 -19z m-67 -82 c0 -3 -4 -8
-10 -11 -5 -3 -10 -1 -10 4 0 6 5 11 10 11 6 0 10 -2 10 -4z m-23 -45 c0 -11
-5 -18 -9 -15 -4 3 -5 11 -1 19 7 21 12 19 10 -4z m-4696 -58 c13 -16 12 -17
-3 -4 -10 7 -18 15 -18 17 0 8 8 3 21 -13z m2160 -26 c-10 -9 -11 -8 -5 6 3
10 9 15 12 12 3 -3 0 -11 -7 -18z m2519 -24 c0 -7 -39 17 -46 28 -3 6 5 3 20
-6 14 -10 26 -19 26 -22z m-4730 -3 c6 -11 8 -20 6 -20 -3 0 -10 9 -16 20 -6
11 -8 20 -6 20 3 0 10 -9 16 -20z m4595 -98 c-3 -3 -11 0 -18 7 -9 10 -8 11 6
5 10 -3 15 -9 12 -12z m-198 -98 c-3 -3 -12 -4 -19 -1 -8 3 -5 6 6 6 11 1 17
-2 13 -5z m-340 -90 c-3 -3 -12 -4 -19 -1 -8 3 -5 6 6 6 11 1 17 -2 13 -5z
m-3622 -112 c-3 -3 -11 0 -18 7 -9 10 -8 11 6 5 10 -3 15 -9 12 -12z m5815
-232 c-8 -5 -19 -10 -25 -10 -5 0 -3 5 5 10 8 5 20 10 25 10 6 0 3 -5 -5 -10z
m110 6 c0 -2 -8 -10 -17 -17 -16 -13 -17 -12 -4 4 13 16 21 21 21 13z m-5730
-61 c11 -13 10 -14 -4 -9 -9 3 -16 10 -16 15 0 13 6 11 20 -6z m5535 -55 c-3
-5 -12 -10 -18 -10 -7 0 -6 4 3 10 19 12 23 12 15 0z m-5038 -295 c0 -8 -4
-12 -9 -9 -5 3 -6 10 -3 15 9 13 12 11 12 -6z m4554 -42 c13 -17 13 -17 -6 -3
-11 8 -22 16 -24 17 -2 2 0 3 6 3 6 0 17 -8 24 -17z m-1 -58 c0 -2 -10 -9 -22
-15 -22 -11 -22 -10 -4 4 21 17 26 19 26 11z m-108 -52 c-6 -3 -10 -8 -8 -12
3 -4 -3 -7 -13 -7 -28 0 -20 21 8 22 14 1 20 -1 13 -3z m-4033 -37 c9 -11 9
-16 0 -22 -7 -4 -9 -3 -5 4 3 6 -2 15 -11 21 -10 6 -13 11 -7 11 6 0 17 -6 23
-14z m3796 -16 c-3 -5 -12 -10 -18 -10 -7 0 -6 4 3 10 19 12 23 12 15 0z m85
-50 c-8 -5 -19 -10 -25 -10 -5 0 -3 5 5 10 8 5 20 10 25 10 6 0 3 -5 -5 -10z
m-3885 -10 c3 -6 -1 -7 -9 -4 -18 7 -21 14 -7 14 6 0 13 -4 16 -10z m370 -108
c-3 -3 -11 0 -18 7 -9 10 -8 11 6 5 10 -3 15 -9 12 -12z m-85 -22 c8 -5 11
-10 5 -10 -5 0 -17 5 -25 10 -8 5 -10 10 -5 10 6 0 17 -5 25 -10z m2727 -126
c-3 -3 -12 -4 -19 -1 -8 3 -5 6 6 6 11 1 17 -2 13 -5z m-1794 -91 c-7 -2 -19
-2 -25 0 -7 3 -2 5 12 5 14 0 19 -2 13 -5z m1374 1 c-3 -3 -12 -4 -19 -1 -8 3
-5 6 6 6 11 1 17 -2 13 -5z m-840 -110 c-3 -3 -12 -4 -19 -1 -8 3 -5 6 6 6 11
1 17 -2 13 -5z"/>
<path d="M8116 11142 c-4 -7 71 -35 124 -48 3 0 12 -3 20 -6 65 -22 92 -28
102 -22 7 5 -38 24 -107 46 -133 42 -132 41 -139 30z"/>
<path d="M11350 12220 c0 -5 5 -10 10 -10 6 0 10 5 10 10 0 6 -4 10 -10 10 -5
0 -10 -4 -10 -10z"/>
<path d="M11734 7050 c-26 -10 -54 -48 -54 -72 0 -27 25 -22 38 7 14 31 52 50
85 41 32 -8 47 -49 35 -94 -8 -31 -74 -105 -140 -160 -16 -12 -28 -26 -28 -32
0 -6 43 -10 110 -10 91 0 110 3 110 15 0 12 -16 15 -81 15 l-81 0 43 36 c64
53 101 108 107 159 4 39 1 48 -26 75 -32 31 -73 38 -118 20z"/>
<path d="M12144 7041 c-39 -24 -54 -65 -54 -151 0 -116 32 -163 111 -163 78 0
109 48 109 171 0 78 -19 126 -59 146 -40 21 -69 20 -107 -3z m113 -48 c13 -20
18 -46 17 -102 -1 -86 -13 -118 -51 -127 -70 -18 -109 41 -100 149 7 80 27
107 77 107 32 0 43 -5 57 -27z"/>
<path d="M12551 7033 c-38 -36 -50 -73 -24 -73 11 0 23 11 30 30 22 58 114 48
121 -14 6 -46 -16 -82 -94 -156 -41 -38 -74 -74 -74 -80 0 -6 43 -10 110 -10
91 0 110 3 110 15 0 12 -16 15 -82 15 l-82 0 55 49 c105 93 128 188 56 231
-46 28 -91 26 -126 -7z"/>
<path d="M12983 7048 c-34 -16 -63 -85 -63 -149 0 -113 36 -170 107 -171 48 0
77 14 101 49 24 37 24 184 -1 229 -24 47 -93 67 -144 42z m114 -66 c21 -51 14
-173 -11 -201 -28 -31 -79 -28 -105 5 -17 22 -21 41 -21 100 0 85 13 120 49
132 43 14 72 3 88 -36z"/>
<path d="M7157 7033 c-54 -22 -71 -85 -35 -130 6 -7 32 -19 58 -27 97 -29 118
-59 74 -103 -32 -32 -79 -26 -111 14 -17 21 -25 25 -34 16 -33 -33 65 -94 126
-79 71 18 101 104 50 145 -14 11 -40 23 -58 27 -59 12 -87 32 -87 62 0 16 5
33 12 40 20 20 83 15 103 -8 17 -19 55 -28 55 -12 -1 4 -10 18 -21 31 -26 31
-85 42 -132 24z"/>
<path d="M6730 6883 l0 -158 85 0 c61 0 85 3 85 13 0 10 -53 17 -117 15 -9 -1
-13 17 -13 58 l0 58 55 3 c30 2 55 8 55 13 0 6 -25 11 -55 13 l-55 3 0 54 0
55 65 0 c51 0 65 3 65 15 0 12 -16 15 -85 15 l-85 0 0 -157z"/>
<path d="M7500 7025 c0 -11 12 -15 45 -15 l45 0 0 -143 c0 -121 2 -144 15
-144 13 0 15 23 15 144 l0 143 45 0 c33 0 45 4 45 15 0 12 -18 15 -105 15 -87
0 -105 -3 -105 -15z"/>
<path d="M7910 6882 l0 -158 82 2 c79 2 84 4 110 33 36 40 35 65 -1 101 l-28
29 23 22 c24 22 30 52 18 84 -11 28 -60 45 -134 45 l-70 0 0 -158z m151 118
c12 -7 19 -21 19 -40 0 -40 -35 -62 -92 -58 l-43 3 -1 53 -1 52 49 0 c27 0 58
-5 69 -10z m11 -147 c21 -19 23 -52 4 -78 -10 -14 -27 -18 -72 -19 l-59 -1 0
58 -1 57 55 0 c37 0 60 -5 73 -17z"/>
<path d="M8320 6751 c0 -26 17 -36 35 -21 18 15 8 40 -16 40 -12 0 -19 -7 -19
-19z"/>
<path d="M5912 5808 l3 -483 147 -1 147 0 6 40 c4 23 5 105 3 184 l-3 142 138
0 137 0 0 115 0 115 -135 0 -135 0 -1 55 c-1 30 -2 60 -3 66 -1 7 55 11 181
10 107 0 185 4 188 9 3 6 7 58 7 117 l1 108 -342 3 -341 2 2 -482z"/>
<path d="M6770 6283 c-1 -5 -1 -151 0 -325 1 -346 4 -368 60 -465 33 -58 108
-119 180 -148 30 -12 82 -19 155 -23 94 -3 119 -1 173 17 112 38 183 96 229
186 49 95 53 128 53 458 l0 307 -150 0 -150 0 0 -290 c0 -309 -3 -334 -49
-374 -32 -29 -120 -28 -158 0 -44 33 -51 80 -52 369 0 143 -1 268 -1 278 0 15
-14 17 -145 17 -80 0 -145 -3 -145 -7z"/>
<path d="M7820 5812 c0 -428 2 -481 16 -486 19 -7 257 -8 276 -1 10 4 13 40
11 165 -1 88 1 161 5 164 5 3 43 -64 86 -147 44 -84 86 -160 95 -170 13 -16
31 -18 156 -16 77 1 147 5 156 8 14 5 0 36 -82 178 -54 95 -99 177 -99 181 0
5 16 16 35 25 182 87 222 336 78 480 -85 85 -112 91 -445 95 l-288 3 0 -479z
m496 204 c20 -29 18 -99 -4 -119 -21 -19 -33 -21 -123 -19 l-66 2 0 67 c-1 98
-4 95 94 91 70 -2 87 -6 99 -22z"/>
<path d="M8810 5811 l0 -479 75 -7 c41 -4 109 -4 150 0 l75 7 2 239 3 239 162
-245 163 -245 103 0 c58 0 125 3 151 6 l46 7 0 479 0 479 -151 -3 -151 -3 0
-238 c0 -131 -4 -237 -9 -235 -4 2 -50 68 -101 148 -51 80 -120 186 -153 237
l-60 92 -152 1 -153 0 0 -479z"/>
<path d="M9946 6268 c-8 -31 -6 -898 2 -923 7 -20 15 -21 152 -20 l145 0 3
483 2 482 -149 0 c-146 0 -149 0 -155 -22z"/>
<path d="M10400 6169 l0 -120 128 2 127 1 3 -358 c1 -222 6 -360 12 -364 6 -3
73 -7 150 -9 l140 -2 0 365 0 366 114 0 c63 0 121 3 130 6 13 5 16 23 16 98 0
50 -3 101 -6 114 l-6 22 -404 0 -404 0 0 -121z"/>
<path d="M11360 5997 c0 -309 7 -376 44 -461 65 -143 194 -216 383 -216 197 0
338 89 404 257 22 56 24 71 27 386 l3 327 -150 0 -151 0 0 -281 c0 -300 -5
-342 -47 -381 -36 -33 -131 -33 -167 1 -14 14 -30 41 -36 60 -5 20 -10 162
-10 319 l0 282 -150 0 -150 0 0 -293z"/>
<path d="M12420 5811 c0 -374 3 -480 13 -483 6 -3 74 -6 149 -7 l138 -3 2 178
3 179 90 -172 c62 -118 96 -174 110 -177 40 -11 305 -6 305 5 0 6 -43 87 -95
179 -52 92 -95 173 -95 179 0 5 15 17 33 26 56 26 106 75 135 129 23 44 27 62
26 136 0 72 -4 93 -27 136 -37 73 -106 130 -185 154 -57 18 -93 20 -333 20
l-269 0 0 -479z m484 208 c21 -16 26 -29 26 -63 0 -62 -18 -74 -120 -78 l-85
-3 -3 83 -3 82 79 0 c65 0 84 -4 106 -21z"/>
<path d="M13410 5804 l0 -485 318 3 317 3 3 118 c2 106 1 117 -15 117 -10 1
-85 2 -168 3 l-150 2 0 69 0 69 145 1 145 1 3 113 3 112 -151 0 -150 0 0 60 0
60 170 0 170 0 0 120 0 120 -320 0 -320 0 0 -486z"/>
<path d="M7020 4886 c0 -7 11 -29 24 -49 13 -19 22 -38 18 -41 -3 -3 0 -6 6
-6 16 0 20 22 9 48 -7 14 -13 18 -17 11 -5 -6 -9 -3 -13 10 -3 14 -1 19 6 14
7 -4 6 1 -2 10 -16 20 -31 22 -31 3z"/>
<path d="M7192 4888 c-16 -22 -43 -78 -36 -78 4 0 1 -7 -6 -15 -7 -8 -10 -21
-7 -29 4 -10 0 -12 -15 -8 -11 2 -23 14 -27 24 -6 18 -8 18 -20 4 -11 -13 -11
-16 -1 -16 8 0 10 -3 7 -7 -4 -3 -3 -11 2 -17 6 -7 11 -37 12 -69 2 -49 5 -57
21 -57 17 0 19 7 17 55 -2 41 2 59 15 74 10 11 15 25 11 30 -3 6 -2 11 3 11
10 0 52 81 52 100 0 14 -16 13 -28 -2z"/>
<path d="M7472 4889 c-13 -5 -20 -13 -17 -19 4 -6 3 -9 -2 -8 -17 6 -49 -29
-60 -64 -16 -56 -1 -106 43 -144 47 -41 83 -48 137 -27 45 18 54 25 80 63 25
37 21 140 -5 124 -6 -4 -9 -1 -6 7 3 8 -8 27 -23 43 -22 23 -37 30 -76 32 -26
1 -58 -2 -71 -7z m125 -34 c-1 -5 3 -9 10 -8 8 2 10 -4 6 -14 -4 -10 -2 -14 4
-10 6 4 11 -16 12 -57 1 -56 -1 -66 -26 -90 -24 -25 -33 -27 -89 -24 -34 1
-62 5 -61 8 1 3 -5 16 -12 29 -8 15 -12 45 -9 82 3 36 1 54 -5 47 -7 -10 -8
-10 -5 0 2 8 8 14 13 14 6 0 21 9 34 20 19 14 37 18 77 16 29 -2 52 -7 51 -13z
m56 -150 c-7 -21 -12 -19 -10 4 0 11 5 18 9 15 4 -3 5 -11 1 -19z"/>
<path d="M7840 4805 c0 -55 4 -95 10 -95 5 0 7 -7 4 -15 -3 -8 1 -23 9 -35 13
-18 15 -19 27 -4 9 10 10 18 4 22 -6 4 -12 52 -13 107 -3 93 -9 114 -33 115
-5 0 -8 -43 -8 -95z"/>
<path d="M8020 4786 c0 -104 -2 -116 -20 -129 -14 -10 -32 -12 -60 -7 -40 7
-50 5 -50 -13 0 -5 7 -6 16 -3 8 3 13 2 10 -3 -9 -15 41 -22 71 -10 46 17 64
38 52 61 -8 15 -8 23 1 32 8 8 10 7 5 -5 -4 -10 -2 -20 3 -23 5 -3 9 38 8 102
-1 93 -3 107 -18 110 -16 3 -18 -7 -18 -112z"/>
<path d="M8253 4763 c2 -125 4 -138 20 -141 17 -3 19 2 15 52 -2 47 0 56 15
60 19 5 57 -25 57 -45 0 -5 4 -7 10 -4 6 3 7 -1 4 -9 -4 -10 -1 -16 7 -16 7 0
9 -3 6 -7 -11 -10 13 -33 34 -33 19 0 19 1 -1 39 -11 22 -24 42 -30 46 -18 11
-11 35 15 47 13 6 29 24 35 41 13 38 13 40 -2 31 -8 -5 -9 -2 -5 10 4 10 1 24
-7 32 -32 32 -119 46 -129 22 -4 -10 -6 -10 -6 0 -1 6 -10 12 -20 12 -18 0
-19 -8 -18 -137z m136 88 c14 -14 21 -16 25 -8 3 7 3 -1 -1 -18 -3 -16 -13
-37 -22 -46 -18 -19 -71 -31 -88 -21 -9 6 -18 72 -14 105 2 16 81 7 100 -12z
m-112 -43 c-3 -8 -6 -5 -6 6 -1 11 2 17 5 13 3 -3 4 -12 1 -19z"/>
<path d="M8857 4893 c-4 -3 -7 -11 -7 -17 0 -6 5 -4 10 4 6 9 10 10 10 3 0 -6
12 -13 27 -15 l27 -3 -3 -122 c-2 -118 -1 -123 18 -123 20 0 21 6 21 114 0 63
3 121 6 129 4 10 15 13 40 10 26 -4 34 -1 34 11 0 13 -14 16 -88 16 -49 0 -92
-3 -95 -7z"/>
<path d="M9300 4886 c-7 -9 -10 -23 -6 -31 4 -11 2 -14 -6 -9 -8 5 -9 2 -5 -9
3 -10 2 -17 -3 -17 -9 0 -30 -56 -33 -89 -1 -12 -4 -21 -8 -21 -7 0 -22 -53
-19 -66 1 -4 -4 -11 -12 -15 -9 -6 -7 -9 10 -9 21 0 27 9 23 39 -2 7 2 10 8 6
7 -4 12 6 12 27 1 23 3 26 6 11 4 -21 10 -23 63 -23 55 0 59 -2 72 -30 16 -36
53 -44 39 -7 -10 25 -23 59 -26 67 -19 65 -29 88 -36 85 -4 -3 -5 3 -3 12 5
24 -27 87 -47 91 -9 1 -22 -4 -29 -12z m43 -49 c6 4 8 0 4 -10 -3 -8 2 -38 13
-66 10 -27 16 -51 15 -53 -2 -2 -24 -2 -49 0 -51 4 -54 11 -31 66 8 20 16 39
16 43 4 22 13 36 17 25 2 -7 9 -9 15 -5z m61 -113 c3 -8 2 -12 -4 -9 -6 3 -10
10 -10 16 0 14 7 11 14 -7z"/>
<path d="M9689 4882 c-46 -24 -72 -64 -75 -117 -2 -27 1 -43 7 -40 5 4 9 1 9
-5 0 -6 5 -8 10 -5 6 3 10 23 10 43 0 37 19 74 50 100 23 19 97 8 127 -19 15
-13 22 -17 18 -9 -8 13 -7 13 8 1 10 -8 20 -11 23 -8 8 7 -53 67 -69 68 -7 1
-28 3 -48 4 -21 2 -51 -4 -70 -13z"/>
<path d="M10061 4759 l1 -139 59 0 c40 0 59 4 59 13 0 8 4 7 10 -3 8 -13 10
-12 10 3 0 14 -8 17 -42 16 -24 -1 -47 -1 -53 0 -6 1 -9 47 -7 124 3 119 3
123 -18 124 -20 2 -21 -1 -19 -138z"/>
<path d="M10377 4894 c-9 -9 -9 -236 -1 -258 3 -9 13 -16 20 -16 12 0 14 24
12 137 -3 127 -10 158 -31 137z"/>
<path d="M10604 4887 c-2 -7 -3 -69 -2 -137 3 -110 5 -125 21 -128 15 -3 17 7
17 97 0 55 5 111 11 125 9 20 9 29 -1 41 -15 18 -39 20 -46 2z m29 -17 c-3
-12 -8 -19 -11 -16 -5 6 5 36 12 36 2 0 2 -9 -1 -20z"/>
<path d="M10795 4888 c-3 -8 -5 -60 -3 -115 2 -67 -1 -100 -8 -100 -6 0 -11 5
-11 11 0 21 -55 96 -66 89 -6 -3 -7 -1 -3 5 7 12 -22 72 -35 72 -4 0 -9 -7
-13 -15 -3 -8 -1 -15 4 -15 6 0 9 -3 8 -7 -4 -15 34 -63 45 -56 5 3 7 1 4 -5
-10 -16 4 -44 19 -38 7 3 16 0 20 -6 4 -7 3 -8 -4 -4 -19 11 -14 -8 11 -45 13
-19 31 -34 42 -34 19 0 20 8 20 134 0 99 -3 135 -12 138 -7 3 -15 -2 -18 -9z
m-105 -78 c6 -11 8 -20 6 -20 -3 0 -10 9 -16 20 -6 11 -8 20 -6 20 3 0 10 -9
16 -20z m114 -179 c-2 -3 -12 3 -22 13 -16 17 -16 18 5 5 12 -7 20 -15 17 -18z"/>
<path d="M11020 4758 l0 -138 76 0 c56 0 75 3 71 13 -2 7 -24 13 -53 14 -79 2
-76 1 -64 22 14 26 13 61 -2 61 -6 0 -8 3 -5 7 4 3 30 7 59 7 32 1 53 6 56 14
2 8 -11 12 -47 12 l-51 0 0 40 c0 25 -5 40 -12 40 -34 1 25 20 66 22 26 0 49
5 52 9 7 12 -32 20 -91 18 l-55 -2 0 -139z m27 60 c-3 -8 -6 -5 -6 6 -1 11 2
17 5 13 3 -3 4 -12 1 -19z"/>
<path d="M11581 4761 c1 -131 2 -141 20 -141 16 0 19 8 19 53 0 29 -4 57 -9
63 -7 6 21 9 75 9 l84 0 0 -63 c0 -55 2 -63 18 -60 15 3 17 19 20 132 2 96 -1
131 -10 137 -19 12 -28 -10 -28 -68 l0 -53 -75 0 -74 0 -3 62 c-2 51 -6 63
-21 66 -17 3 -18 -7 -16 -137z"/>
<path d="M11997 4894 c-4 -4 -7 -68 -7 -141 l0 -134 55 2 c31 1 55 7 55 13 0
6 5 4 10 -4 8 -13 10 -13 10 1 0 13 -9 16 -42 15 l-43 -1 -5 48 c-4 29 -2 47
5 48 5 0 29 0 53 -1 30 -1 42 2 42 13 0 7 -7 14 -15 14 -8 0 -15 -5 -15 -11 0
-7 -3 -7 -8 1 -4 6 -21 13 -37 15 -28 3 -30 6 -27 38 6 63 8 65 64 65 29 0 53
5 53 10 0 11 -137 20 -148 9z"/>
<path d="M12332 4763 c3 -125 5 -138 21 -141 17 -3 19 2 15 52 -2 47 0 56 15
60 19 5 57 -25 57 -45 0 -5 4 -7 10 -4 6 3 7 -1 4 -9 -3 -9 -2 -16 4 -16 5 0
12 -9 15 -20 3 -12 14 -20 26 -20 l21 0 -20 39 c-11 22 -24 42 -30 46 -18 11
-11 35 15 47 13 6 29 24 35 41 13 38 13 40 -2 31 -8 -5 -9 -2 -5 10 4 10 1 24
-7 32 -32 32 -119 46 -129 22 -4 -10 -6 -10 -6 0 -1 6 -10 12 -21 12 -19 0
-20 -6 -18 -137z m138 87 c40 -40 12 -89 -54 -92 -20 -1 -38 1 -40 3 -4 4 -9
83 -7 102 2 16 81 7 101 -13z m-110 -35 c0 -8 -2 -15 -4 -15 -2 0 -6 7 -10 15
-3 8 -1 15 4 15 6 0 10 -7 10 -15z"/>
<path d="M12717 4894 c-4 -4 -7 -68 -7 -141 l0 -134 65 3 c40 2 65 7 65 14 0
7 -17 11 -42 10 l-43 -1 -5 48 c-6 51 -7 51 58 47 35 -1 42 1 42 17 0 15 -2
16 -10 3 -9 -13 -10 -13 -10 0 0 13 -1 13 -10 0 -6 -10 -10 -11 -10 -2 0 7
-16 12 -42 13 -24 0 -37 3 -30 6 6 2 12 20 12 38 0 56 5 60 66 58 39 -1 54 2
51 10 -4 13 -138 23 -150 11z m40 -140 c-3 -3 -12 -4 -19 -1 -8 3 -5 6 6 6 11
1 17 -2 13 -5z"/>
<path d="M9748 4764 c6 -3 10 -10 6 -15 -3 -5 17 -9 45 -9 49 0 50 -1 48 -29
-1 -16 -6 -27 -11 -23 -5 3 -6 -2 -3 -12 4 -10 3 -15 -4 -11 -5 4 -16 1 -24
-5 -19 -16 -77 -15 -106 1 -13 7 -27 12 -30 12 -4 -1 -6 5 -5 15 1 11 -7 17
-21 18 -30 2 -29 -5 5 -38 65 -64 139 -67 204 -9 23 21 31 36 32 67 l1 39 -75
2 c-41 1 -69 0 -62 -3z"/>
<path d="M12130 4634 c0 -8 5 -12 10 -9 6 4 8 11 5 16 -9 14 -15 11 -15 -7z"/>
<path d="M12850 4634 c0 -8 5 -12 10 -9 6 4 8 11 5 16 -9 14 -15 11 -15 -7z"/>
</g>
</svg>
